<?xml version="1.0" encoding="UTF-8"?>
<!-- Generator: Adobe Illustrator 16.0.0, SVG Export Plug-In . SVG Version: 6.00 Build 0)  -->
<!DOCTYPE svg PUBLIC "-//W3C//DTD SVG 1.1//EN" "http://www.w3.org/Graphics/SVG/1.1/DTD/svg11.dtd">
<svg version="1.1" id="Layer_1" xmlns="http://www.w3.org/2000/svg" xmlns:xlink="http://www.w3.org/1999/xlink" x="0px" y="0px" width="48px" height="48px" viewBox="0 0 48 48" enable-background="new 0 0 48 48" xml:space="preserve">
<path fill-rule="evenodd" clip-rule="evenodd" fill="#2D160D" d="M29.747,25.101c-0.338-0.337-0.886-0.337-1.222,0l-3.668,4.282  V16.29c0-0.472-0.386-0.855-0.858-0.855c-0.472,0-0.856,0.384-0.856,0.855v13.093l-3.667-4.282c-0.338-0.337-0.885-0.337-1.223,0  c-0.337,0.338-0.337,0.886,0,1.223l5.134,5.99c0.017,0.016,0.04,0.023,0.058,0.036c0.054,0.047,0.113,0.091,0.178,0.12  c0.038,0.02,0.073,0.031,0.11,0.043c0.067,0.023,0.136,0.036,0.21,0.044c0.018,0.001,0.036,0.009,0.056,0.009  c0.02,0,0.038-0.008,0.057-0.009c0.074-0.008,0.142-0.021,0.209-0.044c0.037-0.012,0.072-0.023,0.11-0.043  c0.066-0.03,0.125-0.073,0.179-0.12c0.019-0.013,0.041-0.021,0.058-0.036l5.134-5.99C30.085,25.986,30.085,25.438,29.747,25.101z"/>
<g>
	<g>
		<path fill="#2D160D" d="M24,47C11.318,47,1,36.683,1,24.001C1,11.318,11.318,1,24,1c12.683,0,23,10.318,23,23.001    C47,36.683,36.683,47,24,47z M24,3C12.42,3,3,12.421,3,24.001C3,35.58,12.42,45,24,45c11.579,0,21-9.42,21-20.999    C45,12.421,35.579,3,24,3z"/>
	</g>
</g>
</svg>