<?xml version="1.0" encoding="utf-8"?>
<!-- Generator: Adobe Illustrator 16.0.0, SVG Export Plug-In . SVG Version: 6.00 Build 0)  -->
<!DOCTYPE svg PUBLIC "-//W3C//DTD SVG 1.1//EN" "http://www.w3.org/Graphics/SVG/1.1/DTD/svg11.dtd">
<svg version="1.1" id="Layer_1" xmlns="http://www.w3.org/2000/svg" xmlns:xlink="http://www.w3.org/1999/xlink" x="0px" y="0px"
	 width="34px" height="10.5px" viewBox="0 3.75 34 10.5" enable-background="new 0 3.75 34 10.5" xml:space="preserve">
<g>
	<path fill="#FAD20C" stroke="#FAD20C" stroke-width="0.25" stroke-miterlimit="10" d="M1.186,5.412l7.393,8.073
		c0.248,0.25,0.649,0.25,0.898,0c0.246-0.25,0.246-0.649,0-0.897L2.083,4.514c-0.247-0.248-0.648-0.248-0.898,0
		C0.938,4.761,0.938,5.164,1.186,5.412z"/>
	<path fill="#FAD20C" stroke="#FAD20C" stroke-width="0.25" stroke-miterlimit="10" d="M8.523,12.587l7.392-8.071
		c0.25-0.248,0.651-0.246,0.899,0c0.248,0.245,0.248,0.647,0,0.897l-7.394,8.073c-0.245,0.248-0.648,0.248-0.896,0
		C8.277,13.238,8.277,12.836,8.523,12.587z"/>
</g>
</svg>
