<?xml version="1.0" encoding="utf-8"?>
<!-- Generator: Adobe Illustrator 16.0.0, SVG Export Plug-In . SVG Version: 6.00 Build 0)  -->
<!DOCTYPE svg PUBLIC "-//W3C//DTD SVG 1.1//EN" "http://www.w3.org/Graphics/SVG/1.1/DTD/svg11.dtd">
<svg version="1.1" id="Layer_1" xmlns="http://www.w3.org/2000/svg" xmlns:xlink="http://www.w3.org/1999/xlink" x="0px" y="0px"
	 width="48px" height="48px" viewBox="0 6 48 48" enable-background="new 0 6 48 48" xml:space="preserve">
<path fill="#3C1B0F" d="M24,9C12.402,9,3,18.402,3,30c0,11.598,9.402,21,21,21c11.598,0,21-9.402,21-21C45,18.402,35.598,9,24,9z
	 M24,48.053c-9.954,0-18.053-8.099-18.053-18.053c0-9.954,8.099-18.053,18.053-18.053c9.954,0,18.053,8.099,18.053,18.053
	C42.053,39.954,33.954,48.053,24,48.053z"/>
<g>
	<path fill="#3C1B0F" d="M23.966,19.421L23.966,19.421c0,0.001,0,0.002-0.001,0.002C23.964,19.424,23.966,19.422,23.966,19.421
		 M23.867,19.35c0.001,0,0.001,0,0.003,0.001C23.868,19.35,23.867,19.35,23.867,19.35z M23.896,18.681
		c-0.01-0.024-0.021-0.047-0.032-0.069C23.876,18.634,23.886,18.657,23.896,18.681c-0.001-0.002-0.001-0.003-0.002-0.005
		C23.895,18.678,23.895,18.678,23.896,18.681L23.896,18.681L23.896,18.681z M21.802,18.488c0,0.002-0.001,0.002-0.002,0.003
		C21.802,18.49,21.802,18.49,21.802,18.488L21.802,18.488z M22.377,18.034c-0.001,0.001-0.003,0.003-0.006,0.003
		C22.374,18.037,22.375,18.036,22.377,18.034 M22.714,17.831c-0.115,0.012-0.227,0.035-0.334,0.076
		c-0.209,0.077-0.396,0.206-0.549,0.366c-0.157,0.164-0.28,0.358-0.372,0.566c-0.096,0.213-0.161,0.44-0.195,0.672
		c-0.017,0.115-0.026,0.235-0.028,0.353c-0.001,0.115,0.007,0.229,0.022,0.343c0.017,0.121,0.042,0.241,0.085,0.355
		c0.021,0.055,0.043,0.109,0.071,0.162c0.025,0.046,0.055,0.088,0.087,0.129c0.055,0.068,0.125,0.125,0.205,0.165
		c0.08,0.039,0.165,0.058,0.252,0.063c0.091,0.004,0.182-0.008,0.269-0.029c0.098-0.023,0.191-0.058,0.283-0.097
		c0.196-0.085,0.38-0.198,0.555-0.316c0.172-0.117,0.337-0.245,0.499-0.373c0.066-0.053,0.132-0.106,0.198-0.159
		c0.087-0.071,0.167-0.15,0.236-0.24c0.038-0.049,0.072-0.102,0.097-0.159c0.025-0.059,0.042-0.123,0.037-0.187
		c-0.002-0.029-0.008-0.057-0.02-0.083c-0.006-0.016-0.013-0.031-0.022-0.045c-0.01-0.016-0.022-0.031-0.035-0.046
		c-0.008-0.011-0.018-0.02-0.027-0.027c0.023-0.047,0.04-0.1,0.05-0.153c0.022-0.116,0.013-0.234-0.014-0.351
		c-0.029-0.121-0.08-0.235-0.142-0.342c-0.064-0.111-0.142-0.213-0.231-0.304c-0.084-0.085-0.18-0.161-0.284-0.221
		c-0.049-0.029-0.102-0.05-0.154-0.07c-0.055-0.019-0.112-0.029-0.169-0.036c-0.077-0.011-0.156-0.018-0.234-0.018
		C22.805,17.824,22.759,17.826,22.714,17.831"/>
	<path fill="#3C1B0F" d="M34.594,21.128L34.594,21.128c0,0-0.002,0-0.002-0.001C34.592,21.128,34.594,21.128,34.594,21.128
		 M34.658,21.024c0,0.002,0,0.002-0.002,0.004C34.658,21.026,34.658,21.026,34.658,21.024z M35.326,21.009
		c0.025-0.011,0.047-0.023,0.068-0.037C35.373,20.985,35.352,20.998,35.326,21.009c0.004-0.001,0.006-0.001,0.006-0.003
		C35.332,21.007,35.33,21.007,35.326,21.009L35.326,21.009L35.326,21.009z M35.375,18.906c-0.002,0-0.004,0-0.004-0.002
		C35.373,18.905,35.375,18.906,35.375,18.906z M35.867,19.448c-0.002-0.001-0.002-0.003-0.004-0.005
		C35.865,19.445,35.865,19.446,35.867,19.448 M36.094,19.771c-0.018-0.114-0.051-0.223-0.098-0.329
		c-0.092-0.203-0.232-0.379-0.402-0.522c-0.174-0.145-0.377-0.254-0.59-0.332c-0.223-0.081-0.449-0.131-0.686-0.148
		c-0.117-0.008-0.234-0.011-0.354-0.003c-0.115,0.007-0.23,0.024-0.34,0.046c-0.119,0.025-0.24,0.061-0.35,0.109
		c-0.055,0.023-0.107,0.051-0.158,0.082c-0.043,0.029-0.082,0.061-0.121,0.096c-0.064,0.061-0.117,0.135-0.15,0.215
		c-0.031,0.082-0.045,0.169-0.043,0.257c0,0.09,0.018,0.181,0.043,0.266c0.031,0.097,0.072,0.188,0.119,0.276
		c0.098,0.19,0.221,0.366,0.354,0.532c0.127,0.164,0.264,0.32,0.406,0.473c0.055,0.062,0.115,0.125,0.174,0.187
		c0.076,0.082,0.16,0.156,0.252,0.219c0.055,0.036,0.109,0.065,0.17,0.086s0.123,0.033,0.188,0.024
		c0.027-0.004,0.057-0.012,0.082-0.025c0.016-0.007,0.027-0.015,0.043-0.026c0.016-0.01,0.029-0.023,0.045-0.037
		c0.008-0.008,0.018-0.019,0.025-0.029c0.049,0.02,0.102,0.033,0.154,0.039c0.119,0.015,0.236-0.002,0.35-0.037
		c0.119-0.037,0.23-0.097,0.332-0.165c0.105-0.072,0.201-0.157,0.285-0.251c0.08-0.091,0.15-0.191,0.201-0.3
		c0.025-0.05,0.045-0.105,0.061-0.159c0.014-0.055,0.02-0.114,0.023-0.171c0.006-0.078,0.006-0.157,0.002-0.234
		C36.109,19.86,36.102,19.816,36.094,19.771"/>
	<path fill="#3C1B0F" d="M14.125,19.851L14.125,19.851c0,0.001,0.001,0.002,0.001,0.003C14.125,19.854,14.125,19.853,14.125,19.851
		 M14.007,19.884c0,0,0.002,0,0.003,0C14.009,19.884,14.008,19.884,14.007,19.884z M13.5,19.448
		c-0.025-0.008-0.049-0.013-0.075-0.018C13.45,19.435,13.475,19.44,13.5,19.448c-0.002,0-0.004-0.001-0.006-0.003
		C13.497,19.446,13.498,19.448,13.5,19.448L13.5,19.448L13.5,19.448z M12.053,20.973c0,0.001,0.001,0.003,0.001,0.003
		C12.054,20.977,12.053,20.975,12.053,20.973z M12.052,20.24c0,0.002,0,0.006,0,0.007C12.051,20.246,12.052,20.243,12.052,20.24
		 M12.101,19.851c-0.062,0.096-0.112,0.2-0.148,0.31c-0.068,0.211-0.082,0.436-0.051,0.658c0.031,0.223,0.108,0.442,0.213,0.641
		c0.109,0.208,0.246,0.399,0.408,0.57c0.081,0.085,0.168,0.166,0.259,0.24c0.09,0.072,0.185,0.136,0.285,0.195
		c0.104,0.062,0.215,0.114,0.33,0.154c0.056,0.018,0.114,0.033,0.171,0.043c0.052,0.01,0.104,0.012,0.156,0.012
		c0.087-0.001,0.177-0.021,0.255-0.06c0.08-0.039,0.148-0.093,0.207-0.16c0.06-0.069,0.106-0.146,0.144-0.229
		c0.043-0.091,0.074-0.187,0.099-0.284c0.056-0.204,0.081-0.418,0.096-0.63c0.015-0.208,0.016-0.415,0.016-0.622
		c0-0.084-0.001-0.17-0.001-0.253c-0.002-0.114-0.015-0.226-0.042-0.335c-0.016-0.062-0.036-0.122-0.065-0.176
		c-0.031-0.058-0.07-0.109-0.123-0.145c-0.025-0.015-0.05-0.029-0.078-0.036c-0.017-0.005-0.032-0.009-0.049-0.012
		c-0.019-0.002-0.039,0-0.058,0c-0.013,0-0.025,0.001-0.039,0.004c-0.023-0.048-0.054-0.092-0.087-0.132
		c-0.078-0.091-0.178-0.157-0.285-0.208c-0.111-0.052-0.235-0.083-0.357-0.101c-0.126-0.018-0.254-0.02-0.381-0.005
		c-0.12,0.012-0.239,0.04-0.35,0.085c-0.052,0.021-0.104,0.049-0.15,0.079c-0.048,0.032-0.091,0.071-0.133,0.109
		c-0.058,0.054-0.11,0.111-0.158,0.172C12.151,19.774,12.124,19.811,12.101,19.851"/>
	<path fill="#3C1B0F" d="M22.72,22.509c-0.053,0.065-0.1,0.132-0.142,0.205c-0.043,0.077-0.078,0.159-0.11,0.24
		c-0.065,0.169-0.107,0.347-0.142,0.526c-0.072,0.377-0.103,0.761-0.153,1.141c-0.019,0.144-0.042,0.287-0.075,0.431
		c-0.048,0.206-0.11,0.408-0.177,0.61c-0.136,0.403-0.301,0.798-0.467,1.192c0,0.002,0,0.004-0.002,0.005l0,0v0.001c0,0,0,0,0-0.001
		c-0.001,0.004-0.003,0.009-0.006,0.014c0.001-0.001,0.001-0.003,0.001-0.003c-0.013,0.031-0.026,0.062-0.039,0.094
		c-0.004,0.01-0.008,0.019-0.011,0.025c-0.119,0.282-0.237,0.565-0.345,0.852c-0.127,0.338-0.237,0.685-0.32,1.037
		c-0.174,0.742-0.234,1.505-0.29,2.262c-0.033,0.468-0.066,0.938-0.122,1.404c-0.089-0.184-0.182-0.366-0.276-0.547
		c-0.3-0.574-0.626-1.133-0.958-1.688c-0.166-0.277-0.333-0.553-0.5-0.831c-0.154-0.256-0.309-0.51-0.456-0.771
		c-0.268-0.475-0.513-0.964-0.819-1.416c-0.139-0.203-0.291-0.4-0.46-0.581c-0.086-0.093-0.18-0.181-0.278-0.264
		c-0.1-0.085-0.207-0.161-0.312-0.242c-0.208-0.161-0.41-0.327-0.608-0.5c-0.208-0.186-0.41-0.376-0.608-0.572
		c-0.363-0.359-0.718-0.779-1.223-0.938c-0.028-0.01-0.062-0.004-0.086,0.011c-0.026,0.016-0.041,0.039-0.051,0.067
		c-0.078,0.21-0.104,0.438-0.107,0.662c-0.003,0.252,0.03,0.507,0.072,0.756c0.085,0.507,0.233,1.004,0.361,1.503
		c0.069,0.268,0.123,0.541,0.177,0.813c0.066,0.338,0.128,0.679,0.188,1.018c0.116,0.681,0.218,1.361,0.316,2.045
		s0.19,1.367,0.286,2.049c0.097,0.685,0.198,1.367,0.3,2.05c0.101,0.682,0.202,1.36,0.297,2.044
		c0.021,0.152,0.042,0.306,0.063,0.461l0,0c0.004,0.025,0.007,0.053,0.011,0.08c0.023,0.178,0.046,0.355,0.069,0.535
		c0.075,0.586,0.143,1.176,0.2,1.765c0.014,0.139,0.026,0.276,0.038,0.414c0.01,0.117,0.019,0.235,0.032,0.354
		c0.023,0.208,0.058,0.415,0.126,0.615c0.066,0.188,0.168,0.361,0.313,0.498c0.035,0.033,0.074,0.063,0.113,0.091
		c0.044,0.03,0.093,0.055,0.144,0.076c0.042,0.016,0.083,0.031,0.125,0.043c0.055,0.015,0.111,0.021,0.167,0.026
		c0.098,0.013,0.198,0.01,0.296,0.003c0.115-0.008,0.229-0.024,0.342-0.044c0.21-0.033,0.417-0.081,0.629-0.11
		c0.139-0.017,0.28-0.024,0.42-0.031c0.18-0.013,0.359-0.021,0.538-0.029c0.346-0.012,0.691-0.019,1.038-0.021
		c0.691-0.009,1.383-0.004,2.075-0.013c0.347-0.006,0.692-0.016,1.039-0.024c0.348-0.01,0.695-0.018,1.042-0.026
		c0.696-0.015,1.393-0.025,2.089-0.03c0.64-0.001,1.281,0.005,1.921,0.023c0.319,0.009,0.638,0.021,0.96,0.037
		c0.166,0.008,0.331,0.017,0.498,0.029c0.109,0.007,0.217,0.012,0.327,0.025c0.268,0.038,0.535,0.09,0.804,0.105
		c0.123,0.005,0.248,0.001,0.367-0.026c0.049-0.013,0.1-0.035,0.141-0.06c0.035-0.017,0.063-0.041,0.092-0.063
		c0.025-0.021,0.047-0.046,0.07-0.072c0.084-0.101,0.125-0.226,0.143-0.353c0.021-0.144,0.018-0.291,0.018-0.436
		c-0.002-0.074-0.002-0.146-0.002-0.22c0.002-0.096,0.012-0.191,0.021-0.286c0.016-0.199,0.037-0.397,0.064-0.594
		c-0.002,0.01-0.002,0.019-0.004,0.029c0.176-1.313,0.535-2.592,0.82-3.884c0.072-0.324,0.135-0.646,0.195-0.975
		c0.057-0.332,0.104-0.669,0.141-1.004c0.082-0.682,0.135-1.367,0.209-2.05c0.02-0.184,0.045-0.367,0.066-0.55
		c0.061-0.448,0.137-0.895,0.211-1.342c0.074-0.451,0.148-0.899,0.221-1.349c0.076-0.45,0.148-0.899,0.213-1.351
		c0.033-0.218,0.063-0.437,0.094-0.655c0.027-0.216,0.053-0.433,0.082-0.649c0.031-0.228,0.074-0.453,0.115-0.678
		c0.049-0.261,0.098-0.521,0.135-0.781c0.068-0.473,0.111-0.967-0.014-1.435c-0.014-0.049-0.061-0.081-0.107-0.081
		c-0.02,0-0.039,0.005-0.055,0.016c-0.178,0.103-0.332,0.238-0.473,0.387c-0.158,0.171-0.297,0.36-0.426,0.553
		c-0.275,0.413-0.504,0.857-0.729,1.299c-0.1,0.198-0.197,0.395-0.301,0.587c-0.061,0.113-0.125,0.225-0.186,0.336
		c-0.084,0.155-0.17,0.309-0.254,0.466c-0.322,0.599-0.637,1.204-0.945,1.809c-0.25,0.485-0.497,0.97-0.744,1.455
		c-0.125,0.24-0.249,0.483-0.375,0.725c-0.126,0.242-0.255,0.482-0.378,0.725c-0.261,0.506-0.497,1.025-0.729,1.543
		c-0.461-0.929-0.936-1.85-1.422-2.763c-0.363-0.682-0.733-1.358-1.111-2.03c-0.354-0.637-0.752-1.249-1.141-1.865
		c-0.387-0.616-0.766-1.238-1.084-1.894c-0.149-0.306-0.279-0.622-0.418-0.935c-0.137-0.307-0.286-0.611-0.478-0.886
		c-0.052-0.074-0.106-0.145-0.164-0.215c-0.018-0.021-0.048-0.032-0.078-0.032C22.768,22.477,22.738,22.488,22.72,22.509"/>
</g>
</svg>
