<?xml version="1.0" encoding="utf-8"?>
<!-- Generator: Adobe Illustrator 16.0.0, SVG Export Plug-In . SVG Version: 6.00 Build 0)  -->
<!DOCTYPE svg PUBLIC "-//W3C//DTD SVG 1.1//EN" "http://www.w3.org/Graphics/SVG/1.1/DTD/svg11.dtd">
<svg version="1.1" id="Layer_1" xmlns="http://www.w3.org/2000/svg" xmlns:xlink="http://www.w3.org/1999/xlink" x="0px" y="0px"
	 width="48px" height="48px" viewBox="0 0 48 48" enable-background="new 0 0 48 48" xml:space="preserve">
<g>
	<path fill="#523528" d="M30.083,24c0,3.354-2.735,6.096-6.083,6.096c-3.347,0-6.083-2.742-6.083-6.096c0-0.304,0-0.712,0.105-1.017
		H15.89v8.634c0,0.303,0.206,0.506,0.506,0.506h15.208c0.299,0,0.506-0.203,0.506-0.506v-8.634h-2.131
		C30.083,23.288,30.083,23.696,30.083,24z"/>
	<path fill="#523528" d="M24,28.061c2.23,0,4.055-1.824,4.055-4.061c0-2.238-1.824-4.063-4.055-4.063
		c-2.231,0-4.055,1.825-4.055,4.063C19.945,26.234,21.77,28.061,24,28.061z"/>
	<path fill="#523528" d="M31.604,15.877h-2.029c-0.303,0-0.506,0.202-0.506,0.505v2.033c0,0.302,0.203,0.506,0.506,0.506h2.029
		c0.301,0,0.506-0.204,0.506-0.506v-2.033C32.109,16.079,31.902,15.877,31.604,15.877z"/>
	<path fill="#523528" d="M24,3.959C12.953,3.959,4,12.931,4,24c0,11.066,8.953,20.041,20,20.041c11.045,0,20-8.975,20-20.041
		C44,12.931,35.045,3.959,24,3.959z M34.134,32.123c0,1.122-0.909,2.034-2.024,2.034H15.891c-1.115,0-2.024-0.912-2.024-2.034
		V15.877c0-1.124,0.909-2.035,2.024-2.035h16.218c1.115,0,2.024,0.911,2.024,2.035V32.123z"/>
</g>
</svg>
