<?xml version="1.0" encoding="utf-8"?>
<!-- Generator: Adobe Illustrator 16.0.0, SVG Export Plug-In . SVG Version: 6.00 Build 0)  -->
<!DOCTYPE svg PUBLIC "-//W3C//DTD SVG 1.1//EN" "http://www.w3.org/Graphics/SVG/1.1/DTD/svg11.dtd">
<svg version="1.1" id="Layer_1" xmlns="http://www.w3.org/2000/svg" xmlns:xlink="http://www.w3.org/1999/xlink" x="0px" y="0px"
	 width="100px" height="100px" viewBox="0 0 100 100" enable-background="new 0 0 100 100" xml:space="preserve">
<path fill="#FFDF5D" d="M49.4,92.979c0,0-70.576-64.091,0-85.958C49.4,7.021,121.957,23.986,49.4,92.979z"/>
<path fill="#91CC8A" d="M43.824,32.571L49.4,21.597l5.579,10.974l11.66,2.18l-8.213,8.968l1.626,12.322l-12.929-4.498l-8.371,4.498
	l1.623-12.322l-8.209-8.968"/>
<path fill="none" stroke="#231F20" stroke-width="5.076" stroke-linecap="round" stroke-linejoin="round" stroke-miterlimit="22.926" d="
	M49.4,7.021c8.846,0,16.858,3.768,22.657,9.86c5.799,6.091,9.387,14.508,9.387,23.805c0,5.41-1.217,10.524-3.373,15.048
	C73.939,64.4,57.203,84.782,49.4,92.979C41.601,84.782,24.859,64.4,20.734,55.734c-2.16-4.524-3.374-9.638-3.374-15.048
	C17.361,22.091,31.705,7.021,49.4,7.021z"/>
<path fill="none" stroke="#231F20" stroke-width="5.076" stroke-linecap="round" stroke-linejoin="round" stroke-miterlimit="22.926" d="
	M49.4,21.597l5.579,10.974l11.66,2.18l-8.213,8.968l1.626,12.322L49.4,50.605l-10.648,5.436l1.623-12.322l-8.209-8.968l11.658-2.18
	L49.4,21.597z"/>
</svg>
