<?xml version="1.0" encoding="utf-8"?>
<!-- Generator: Adobe Illustrator 16.0.0, SVG Export Plug-In . SVG Version: 6.00 Build 0)  -->
<!DOCTYPE svg PUBLIC "-//W3C//DTD SVG 1.1//EN" "http://www.w3.org/Graphics/SVG/1.1/DTD/svg11.dtd">
<svg version="1.1" id="Layer_1" xmlns="http://www.w3.org/2000/svg" xmlns:xlink="http://www.w3.org/1999/xlink" x="0px" y="0px"
	 width="10.5px" height="18px" viewBox="0 0 10.5 18" enable-background="new 0 0 10.5 18" xml:space="preserve">
<g>
	<path fill="#FAD20C" stroke="#FAD20C" stroke-width="0.5" stroke-miterlimit="10" d="M0.764,1.185c-0.248,0.25-0.248,0.652,0,0.899
		l8.074,7.393c0.248,0.247,0.646,0.247,0.896,0c0.25-0.249,0.25-0.65,0-0.898L1.662,1.185C1.414,0.938,1.011,0.938,0.764,1.185z"/>
	<path fill="#FAD20C" stroke="#FAD20C" stroke-width="0.5" stroke-miterlimit="10" d="M9.736,8.523c0.248,0.248,0.248,0.652,0,0.897
		l-8.073,7.395c-0.25,0.248-0.652,0.248-0.899,0c-0.246-0.248-0.248-0.65,0-0.9l8.073-7.392C9.086,8.277,9.488,8.277,9.736,8.523z"
		/>
</g>
</svg>
