<?xml version="1.0" encoding="UTF-8"?>
<!-- Generator: Adobe Illustrator 16.0.0, SVG Export Plug-In . SVG Version: 6.00 Build 0)  -->
<!DOCTYPE svg PUBLIC "-//W3C//DTD SVG 1.1//EN" "http://www.w3.org/Graphics/SVG/1.1/DTD/svg11.dtd">
<svg version="1.1" id="Layer_1" xmlns="http://www.w3.org/2000/svg" xmlns:xlink="http://www.w3.org/1999/xlink" x="0px" y="0px" width="140px" height="50px" viewBox="0 -2 140 50" enable-background="new 0 -2 140 50" xml:space="preserve">
<g>
	<g>
		<path fill="#404041" d="M36.611,31.768c-0.729,0.811-1.729,1.238-2.787,1.238c-2.022,0-3.638-1.569-3.638-3.631    c0-2.046,1.614-3.617,3.638-3.617c1.058,0,2.058,0.426,2.796,1.247l-1.022,1.019c-0.396-0.659-1.076-1.009-1.775-1.009    c-1.256,0-2.127,1.143-2.127,2.36c0,1.216,0.862,2.375,2.127,2.375c0.538,0,1.066-0.162,1.785-0.982L36.611,31.768z"/>
		<path fill="#404041" d="M46.634,29.375c0,2.062-1.626,3.632-3.641,3.632c-2.011,0-3.636-1.57-3.636-3.632    c0-2.044,1.625-3.615,3.636-3.615C45.008,25.76,46.634,27.329,46.634,29.375z M40.869,29.375c0,1.204,0.878,2.376,2.125,2.376    c1.268,0,2.126-1.158,2.126-2.376s-0.858-2.359-2.126-2.359C41.748,27.016,40.869,28.163,40.869,29.375z"/>
		<path fill="#404041" d="M54.615,27.09h-2.052v5.832h-1.521V27.09h-2.052v-1.257h5.625V27.09z"/>
		<path fill="#404041" d="M62.353,27.09H60.3v5.832h-1.521V27.09h-2.051v-1.257h5.625V27.09z"/>
		<path fill="#404041" d="M70.738,32.924h-1.626l-0.573-1.366h-2.411l-0.561,1.366h-1.631l2.92-7.091h0.971L70.738,32.924z     M68.067,30.302l-0.729-2.037c-0.217,0.582-0.481,1.379-0.725,2.037H68.067z"/>
		<path fill="#404041" d="M80.336,28.755v4.169h-1.51v-0.615c-0.598,0.429-1.341,0.698-2.132,0.698c-2.006,0-3.639-1.57-3.639-3.632    c0-2.044,1.633-3.615,3.639-3.615c1.058,0,2.062,0.425,2.797,1.245l-0.987,0.99c-0.329-0.566-1.098-0.979-1.81-0.979    c-1.263,0-2.113,1.142-2.113,2.359s0.851,2.376,2.113,2.376c0.967,0,1.854-0.767,2.054-1.733H77.1v-1.263H80.336z"/>
		<path fill="#404041" d="M88.914,31.666v1.258h-5.127v-7.091h4.953v1.26h-3.437v1.518h2.813v1.27h-2.813v1.786H88.914z"/>
	</g>
	<g>
		<path fill="#FFCE00" d="M126.014,14.238c-0.009,0.008-0.019,0.015-0.027,0.021C126.195,14.188,126.187,14.188,126.014,14.238z"/>
		<path fill="#FFCE00" d="M126.556,13.244c0-0.661-0.538-1.196-1.197-1.196c-0.162,0-0.315,0.031-0.456,0.09    c-1.775,0.611-3.48,0.919-5.125,0.919h-1.166c-0.243,0-0.37-0.076-0.37-0.231c0.212-0.869,0.312-1.664,0.312-2.392    c0-0.583-0.117-1.167-0.347-1.749c-0.648-1.541-2.014-2.31-4.104-2.31c-0.777,0-1.725,0.193-2.854,0.582    c-0.922,0.617-1.714,1.271-2.386,1.96c-2.19,0.838-4.21,2.005-6.03,3.432c-1.104-2.175-2.435-4.223-4.016-6.068    c-0.116-0.132-0.236-0.224-0.361-0.29c-0.078-0.137-0.125-0.216-0.132-0.227c-0.708-0.324-1.564-0.491-2.587-0.491    c-1.165,0-2.422,0.272-3.77,0.811c-2.844,1.752-4.448,3.713-4.801,5.885c-0.518,0.818-1.209,1.734-2.079,2.756    c-1.928,1.978-3.891,2.964-5.875,2.964h-0.059c-1.009,0-1.811-0.285-2.396-0.852c-0.481-0.106-1.216-1.784-2.208-5.038    c-0.568-1.954-1.678-2.93-3.337-2.93h-0.251c-1.457,0-2.846,0.782-4.16,2.347c-0.959,1.265-1.647,2.14-2.068,2.634    c0.428-1.847,0.809-3.256,1.144-4.21V9.121c-0.118-0.284-0.395-0.515-0.821-0.693c-0.159,0-0.312,0.041-0.467,0.117    c-0.162,0.027-0.351,0.066-0.574,0.117c-2.302,2.208-4.4,3.308-6.3,3.308c-1.985,0-3.371-0.916-4.158-2.756    c-0.434-2.087-0.708-3.275-0.837-3.559c-0.492-1.083-1.359-1.629-2.598-1.638l-0.851-0.032c-1.848,0.032-3.471,0.709-4.866,2.031    c-0.834,0.884-1.474,1.767-1.923,2.65c-0.078,0.04-0.156,0.085-0.237,0.137c-1.374,3.34-2.351,5.608-2.927,6.805    c-1.355,1.888-2.583,2.835-3.687,2.835c-0.493-0.148-0.739-0.614-0.739-1.4c0.292-2.26,0.439-3.572,0.439-3.94V12.41    c0-1.135-0.262-2.399-0.786-3.793c-0.818-1.85-2.388-2.772-4.71-2.772h-0.375c-0.621,0-1.319,0.116-2.097,0.344    c-1.122,0.559-1.799,0.875-2.038,0.958c-1.106-1.204-2.205-1.807-3.301-1.807c-1.051,0-2.131,0.438-3.246,1.31    c-0.395,0.48-0.703,0.82-0.927,1.028c0.089-0.571,0.373-1.984,0.852-4.244C18.642,2.646,18.302,2.25,17.68,2.25h-0.188    c-0.482,0-0.965,1.052-1.448,3.152C15.246,9.41,14.378,12.946,13.444,16c0,0.526,0.326,0.867,0.977,1.025h0.235    c0.527,0,1.171-0.875,1.938-2.63c2.32-4.798,4.131-7.197,5.434-7.197c0.105,0,0.168,0.003,0.188,0.016    c0.914,0.418,1.371,1.143,1.371,2.173v0.125c-0.84,2.919-1.259,4.788-1.259,5.609v0.52c0.124,1.385,0.634,2.08,1.526,2.08h0.063    c0.199,0,0.471-0.081,0.819-0.236c1.479-1.001,2.221-2.334,2.221-4.002c0-0.577-0.189-1.848-0.567-3.81l0.047-0.316    c0.851-1.186,1.984-1.779,3.401-1.779c0.612,0,1.176,0.164,1.702,0.488c1.082,1.06,1.622,2.678,1.622,4.852    c0,0.136-0.02,0.277-0.062,0.423c-0.251,1.986-0.379,3.125-0.379,3.421v0.251c0,0.292,0.07,0.729,0.206,1.306    c0.411,1.241,1.271,1.859,2.583,1.859h0.379c0.618,0,1.331-0.207,2.141-0.615c1.97-1.1,3.465-3.036,4.483-5.796    c0.69,0.922,1.578,1.383,2.665,1.383h0.065c1.869,0,3.597-1.066,5.181-3.198c0.704-1.268,1.04-1.904,1.008-1.904l0.126,0.08    c1.249,2.548,3.283,3.826,6.096,3.826h0.25c0.254,0,0.609-0.023,1.073-0.066c1.519-0.388,2.835-0.939,3.957-1.653    c-0.568,1.917-1.138,4.114-1.707,6.586c0.141,0.733,0.484,1.101,1.043,1.101h0.127c0.27,0,0.604-0.195,0.992-0.584    c2.58-3.676,4.178-5.86,4.785-6.554c1.01-1.333,1.979-1.998,2.915-1.998h0.298c0.232,0.02,0.445,0.134,0.645,0.344    c0.165,0.276,0.716,1.836,1.641,4.679c0.936,2.532,2.72,3.796,5.356,3.796c0.9,0,2.111-0.254,3.621-0.771    c0.998-0.18,2.342-1.098,4.032-2.759c0.385-0.443,0.746-0.876,1.081-1.301c1.274,1.382,2.842,2.08,4.713,2.08h0.387    c1.128,0,2.164-0.248,3.11-0.739c0.601-0.168,1.419-1.007,2.46-2.522l1.193-2.161c0.489,0.807,0.943,1.644,1.368,2.5    c-3.607,3.421-6.269,7.892-7.74,12.646c-1.48,4.763-1.247,15.961,5.519,17.057c7.652,1.241,9.134-7.94,8.692-13.527    c-0.41-5.184-1.5-10.625-3.607-15.56c0.854-0.702,1.754-1.337,2.695-1.896c-0.262,0.83-0.397,1.695-0.397,2.602v0.39    c0,0.425,0.033,0.826,0.1,1.202c0.67,2.008,1.891,3.013,3.656,3.013h0.695c2.023,0,3.858-0.997,5.52-2.991    c0.621-0.958,1.062-1.439,1.32-1.439c0.197,0,0.466,0.025,0.818,0.077c3.12,0,7.002-1.065,7.751-1.268    C126.338,14.023,126.556,13.661,126.556,13.244z M24.242,15.274c0.003-0.023,0.006-0.052,0.006-0.093    c0-0.665,0.159-1.354,0.472-2.064v0.301C24.721,14.375,24.559,14.99,24.242,15.274z M50.647,6.25c0,0.379-0.222,1.104-0.664,2.175    c-1.542,3.201-3.061,4.803-4.551,4.803h-0.314c-0.913-0.273-1.368-0.941-1.368-1.999c0-0.093,0.004-0.186,0.014-0.279    c0.33-0.728,0.525-1.211,0.583-1.455c0-0.028-0.003-0.057-0.007-0.085c0.047-0.076,0.095-0.151,0.149-0.229    c1.251-2.234,2.979-3.333,5.182-3.292c0.651,0.03,0.978,0.027,0.978-0.017L50.647,6.25L50.647,6.25z M96.537,11.988    c-0.913,2.148-2.157,3.218-3.754,3.218h-0.234c-0.493,0-0.9-0.077-1.225-0.231c-1.033-0.449-1.55-1.256-1.55-2.41V12.45    c0-0.352,0.073-0.729,0.211-1.126c0.117-0.243,0.224-0.483,0.317-0.717c0.219-0.417,0.509-0.858,0.867-1.323    c1.425-1.576,2.818-2.365,4.174-2.365h0.469c0.195,0,0.289,0.038,0.289,0.117c0.572,0,0.963,0.875,1.17,2.626    C97.015,10.991,96.771,11.766,96.537,11.988z M104.963,28.597c0.44,4.468,0.751,13.173-5.734,12.719    c-4.877-0.345-4.667-10.913-3.648-14.209c1.244-4.004,3.462-7.844,6.435-10.871C103.625,20.226,104.561,24.543,104.963,28.597z     M114.355,14.906c-1.308,1.824-2.611,2.74-3.904,2.74c-0.283,0-0.496-0.041-0.639-0.117c-0.86-0.362-1.283-1.112-1.283-2.233    c0.104-0.855,0.153-1.306,0.153-1.341c0.567-1.488,1.028-2.471,1.38-2.946c0.038-0.017,0.073-0.028,0.114-0.045    c0.099-0.032,0.185-0.073,0.261-0.121c0.428,1.28,1.152,2.251,2.192,2.898c1.175,0.584,1.767,0.894,1.767,0.932L114.355,14.906z     M115.584,12.514h-0.079c-0.187,0-0.469-0.109-0.856-0.332c-1.076-0.595-1.612-1.203-1.612-1.825c0-0.918,0.519-1.429,1.554-1.536    c0.91,0,1.364,0.577,1.364,1.732C115.742,11.859,115.621,12.514,115.584,12.514z"/>
	</g>
	<g>
		<path fill="#404041" d="M44.823,37.668c-0.004,0.482-0.349,0.841-0.815,0.829c-0.157,0-0.336-0.055-0.463-0.146v0.12l-0.339-0.002    l0.008-2.46h0.338l-0.002,0.969c0.108-0.088,0.307-0.158,0.466-0.158C44.483,36.822,44.823,37.185,44.823,37.668z M44.484,37.664    c0.002-0.327-0.224-0.564-0.504-0.564c-0.183,0-0.344,0.081-0.431,0.254c-0.048,0.088-0.073,0.197-0.074,0.31    c-0.001,0.105,0.025,0.214,0.071,0.302c0.089,0.18,0.248,0.264,0.43,0.264C44.255,38.231,44.483,37.992,44.484,37.664z"/>
		<path fill="#404041" d="M47.118,38.481c-0.232,0.54-0.412,0.868-0.718,0.868c-0.094-0.004-0.214-0.048-0.304-0.098l0.102-0.295    c0.028,0.021,0.085,0.055,0.126,0.062c0.252,0.074,0.413-0.452,0.52-0.706l-0.608-1.456l0.342,0.004l0.441,1.06l0.448-1.06    l0.34,0.002C47.806,36.862,47.391,37.833,47.118,38.481z"/>
		<path fill="#404041" d="M53.462,36.043l-0.009,2.464l-0.525-0.01l0.005-1.002l-0.902-0.012l-0.003,1.009h-0.526l0.007-2.453h0.527    l-0.004,1.012h0.902l0.003-1.009L53.462,36.043L53.462,36.043z"/>
		<path fill="#404041" d="M57.157,36.057l-0.005,1.483c-0.001,0.4-0.165,1.01-1.02,0.999c-0.849-0.003-1.019-0.609-1.017-1.013    l0.005-1.476l0.527,0.004l-0.011,1.472c0,0.121,0.028,0.583,0.497,0.583c0.467,0.002,0.49-0.449,0.49-0.572l0.003-1.482    L57.157,36.057z"/>
		<path fill="#404041" d="M59.366,38.525l-0.519-0.003l0.006-2.462l0.527,0.003L59.366,38.525z"/>
		<path fill="#404041" d="M64.854,38.111l-0.003,0.437l-1.558-0.012l0.012-2.454h0.526l-0.008,2.027L64.854,38.111z"/>
		<path fill="#404041" d="M68.617,38.56l-0.563-0.004l-0.2-0.478H67.02l-0.199,0.475h-0.565l1.025-2.459h0.334L68.617,38.56z     M67.691,37.645l-0.25-0.707c-0.077,0.203-0.171,0.481-0.257,0.703L67.691,37.645z"/>
		<path fill="#404041" d="M72.031,36.107l-0.003,1.482c-0.004,0.402-0.167,1.01-1.019,1.006c-0.85-0.002-1.022-0.607-1.022-1.013    l0.01-1.482l0.524,0.002l-0.009,1.48c0,0.121,0.028,0.574,0.497,0.574c0.465,0.005,0.487-0.448,0.487-0.57l0.006-1.482    L72.031,36.107z"/>
		<path fill="#404041" d="M77.742,37.911c-0.005,0.482-0.419,0.703-0.949,0.702c-0.435,0-0.714-0.179-0.97-0.463l0.365-0.361    c0.088,0.18,0.36,0.386,0.607,0.386c0.174,0,0.416-0.044,0.418-0.263c0-0.224-0.246-0.312-0.448-0.37    c-0.368-0.114-0.818-0.303-0.818-0.765c0.005-0.446,0.423-0.679,0.854-0.679c0.366,0.004,0.706,0.188,0.969,0.473l-0.357,0.356    c-0.112-0.15-0.337-0.39-0.613-0.392c-0.16,0-0.324,0.071-0.324,0.245c0,0.202,0.243,0.283,0.425,0.34    C77.296,37.237,77.742,37.435,77.742,37.911z"/>
		<path fill="#404041" d="M81.335,36.141l-0.015,2.463L80.804,38.6l0.005-1.01l-0.91-0.001l-0.003,1.009l-0.523-0.002l0.014-2.461    l0.518,0.003l-0.001,1.01l0.906,0.001l0.002-1.01L81.335,36.141z"/>
		<path fill="#404041" d="M85.138,38.613h-0.559l-0.204-0.469l-0.839-0.011l-0.195,0.476l-0.567-0.003l1.021-2.458h0.345    L85.138,38.613z M84.214,37.704l-0.248-0.712c-0.076,0.201-0.176,0.479-0.259,0.712H84.214z"/>
		<path fill="#404041" d="M88.833,38.631h-0.562l-1.088-1.617l-0.004,1.607l-0.526-0.004l0.005-2.453l0.561,0.002l1.087,1.621    l0.006-1.618l0.528,0.002L88.833,38.631z"/>
	</g>
</g>
</svg>