<?xml version="1.0" encoding="UTF-8"?>
<!-- Generator: Adobe Illustrator 16.0.0, SVG Export Plug-In . SVG Version: 6.00 Build 0)  -->
<!DOCTYPE svg PUBLIC "-//W3C//DTD SVG 1.1//EN" "http://www.w3.org/Graphics/SVG/1.1/DTD/svg11.dtd">
<svg version="1.1" id="Layer_1" xmlns="http://www.w3.org/2000/svg" xmlns:xlink="http://www.w3.org/1999/xlink" x="0px" y="0px" width="169px" height="36px" viewBox="0 0 169 36" enable-background="new 0 0 169 36" xml:space="preserve">
<g>
	<path fill="#523528" d="M0.811,13.758l3.062-0.035L2.839,25.893L0,33.856l1.512,0.7l6.159-6.82l1.696-14.088l1.586-0.037   l-0.7,17.48l-2.213,1.436l0.185,1.257l7.743-0.295l0.185-21.942l-6.563,0.258l1.032-8.776L4.868,1.626l-0.885,10.4l-3.172,0.11   V13.758z M31.936,32.86l0.626-24.485L18.107,8.67l0.773,24.632L31.936,32.86z M23.969,31.387v0.037L23.49,10.367l3.504-0.075   l-0.221,20.983l-2.804,0.148V31.387z"/>
	<path fill="#523528" d="M78.281,33.856l-0.11-1.623l-3.909,0.075l0.7-10.436l-23.048,0.848l-4.276-0.738l0.958,10.694l-2.802,0.037   l0.11,1.585L78.281,33.856z M46.383,17.521l12.353-0.406L59.29,2.807L45.719,3.029L46.383,17.521z M53.869,4.65v4.721l-2.656,0.11   l-0.294-4.756L53.869,4.65z M61.65,21.467l4.13-6.196l5.309-0.11l-0.109,2.914l-2.767,1.031v1.881l8.703,0.111L76.731,1.774   L61.538,2.033l-0.516,10.066l-2.175,8.409L61.65,21.467z M68.804,32.383l-2.508,0.036l0.184-8.556l2.765-0.074L68.804,32.383z    M51.325,11.104l2.543-0.036v4.351l-2.249,0.258L51.325,11.104z M71.385,7.343h-4.609L67.07,3.73h4.461L71.385,7.343z    M53.316,24.195l2.211-0.074l0.627,8.443l-2.287,0.037L53.316,24.195z M60.285,24.011l2.177-0.037l-0.185,8.482l-2.175,0.037   L60.285,24.011z M71.165,13.426v0.038l-4.868,0.075l0.332-4.462l4.684-0.075l-0.147,4.462V13.426z"/>
	<path fill="#523528" d="M94.315,13.28l0.072,6.195L90,20.84l1.768,5.348l2.693-2.104l0.111,7.153l-2.215,1.697v1.106l7.375-0.22   l-0.07-13.829l2.285-1.771l-0.443-0.96l-1.842,0.591L99.626,12.8l2.322-0.221v-1.623l-2.322,0.185l-0.037-8.149L94.13,2.291   l0.148,9.256l-3.541,0.295v1.77L94.315,13.28z M101.985,4.246l4.314-0.074l-0.037,7.596l-2.842,6.307l1.439,0.332l6.012-4.316   l1.66-10.029l4.828-0.074l-0.59,11.21l-2.248,1.475l0.148,1.253l7.635-0.22l0.107-15.562l-20.428,0.479V4.246z M103.718,33.856   l17.924-0.296l0.699-13.864l-19.139,0.664L103.718,33.856z M116.626,21.467v0.037l-0.186,10.583h-7.484l-0.037-10.288l7.707-0.295   V21.467z"/>
	<path fill="#523528" d="M140.956,22.868l-4.904,6.342l0.295,1.291l5.861-3.43l0.039,0.627l5.604-0.074l-0.295,1.107l-5.309,5.053   L143.13,35l8.703-2.875l1.586-4.538l3.91-0.037v4.537l-1.992,1.474l0.146,1.256l6.861-0.223l-0.111-7.744l2.729,3.651l3.982-4.831   l-4.646-3.281l4.314-0.074l-0.074-1.584l-6.453,0.109l-3.172-2.213l5.422-0.073l0.406-10.657l-3.43,0.073l0.258-1.991l6.822-0.258   l-0.111-1.659l-6.527,0.257l0.332-2.912L156.259,1l-0.037,3.466l-3.355,0.074V6.2l3.355-0.074l-0.037,1.918l-8.148,0.111   l-0.037-1.807l3.539-0.11v-1.66l-3.576,0.11l-0.074-3.431l-5.529,0.259l0.33,3.356l-6.121,0.185l0.111,1.659l6.156-0.185   l0.188,1.696l-2.879,0.036l0.738,10.584l2.766-0.037l-1.514,2.398l-5.455,0.109l0.037,1.623L140.956,22.868z M159.097,12.505   l-13.383,0.147L145.64,9.85l13.424-0.294L159.097,12.505z M145.749,14.313l13.348-0.148l0.037,2.766l-13.313,0.148L145.749,14.313z    M147.409,22.721l1.586-0.037l-0.738,3.281l-4.277,0.074l1.66-0.959L147.409,22.721z M149.733,22.684l9.18-0.186l2.436,3.209   l-7.338,0.148l0.477-1.402L149.733,22.684z M148.626,21.062v0.036l1.771-2.359l5.641-0.074l1.697,2.25l-9.109,0.184V21.062z"/>
</g>
</svg>