<?xml version="1.0" encoding="UTF-8"?>
<!-- Generator: Adobe Illustrator 16.0.0, SVG Export Plug-In . SVG Version: 6.00 Build 0)  -->
<!DOCTYPE svg PUBLIC "-//W3C//DTD SVG 1.1//EN" "http://www.w3.org/Graphics/SVG/1.1/DTD/svg11.dtd">
<svg version="1.1" id="Layer_1" xmlns="http://www.w3.org/2000/svg" xmlns:xlink="http://www.w3.org/1999/xlink" x="0px" y="0px" width="136px" height="44px" viewBox="0 0 136 44" enable-background="new 0 0 136 44" xml:space="preserve">
<g>
	<path fill="#FFFFFF" d="M6.823,33.661v2.574l-4.819,0.241v1.487l9.879-0.241v-4.142l1.727-0.04v7.318l23.451-0.482l-2.69-4.504   l-2.049,2.734l-13.652,0.241V33.42h1.767l-0.04,4.303l5.381-0.241l0.04-4.102l9.798-0.201l-0.24-12.626l-9.356,0.2l0.04-3.779   l8.232-0.201l0.643-7.077l-9.236,0.241l3.854-2.252l-4.096-2.011l-10.682,0.12l0.08-0.08L8.068,3.141L1,13.273l1.325,1.368   l2.249-1.287l0.402,3.9l8.634-0.201v4.183l-1.727,0.04v-2.896l-9.879,0.241v1.528h4.819v1.246l-5.542,0.121v1.77l5.542-0.121v1.488   l-4.819,0.241v1.528l9.879-0.242v-3.136l1.727-0.041v8.767l-1.727,0.04v-4.021l-9.879,0.241v1.527h4.819v2.333l-5.743,0.12   l0.121,1.77L6.823,33.661z M27.102,24.814l-1.165-0.281l0.041-1.89h4.979l0.08,3.016l-1.404-0.321l0.32-1.891l-2.689-0.241   L27.102,24.814z M17.987,10.138l-8.594,0.241l3.373-2.896l8.272-0.121L17.987,10.138z M26.098,15.244l0.04-3.458l3.012-0.08   l-0.321,3.538H26.098z M13.61,12.107v3.378h-3.414l-0.361-3.297L13.61,12.107z M25.857,31.53l0.08-4.423l0.924,0.482l-0.281,3.096   l0.964,0.604l1.325-2.774l2.289,1.086l0.04,1.729L25.857,31.53z M18.669,22.885l1.888-0.04l-0.081,8.807h-1.807V22.885z    M20.717,11.866v0.04l-0.121,9.169l-1.927,0.04v-9.128l2.048-0.081V11.866z"/>
	<path fill="#FFFFFF" d="M74.839,22.724l-0.08-1.729l-15.781,0.482l8.473-4.544l15.3,7.64l3.052-6.474l-15.821-3.418l1.204-1.367   l-7.389-1.851l-1.687,1.568l-0.08-3.498l4.658-0.08l-0.12-1.81l-4.578,0.08l-0.12-3.94l-6.666,0.281l0.361,3.78l-4.738,0.08   l0.12,1.81l4.738-0.081l0.441,5.349l4.137-0.241l-10.44,9.691l0.642,1.528l7.911-4.223l0.04,1.488L74.839,22.724z M53.075,28.595   l10.883-0.161l-0.161,11.622h6.746l-0.28-11.702l5.621-0.08l-0.16,7.398l-2.852,1.568l0.161,1.367l9.115-0.241V26.263   l-29.193,0.402L53.075,28.595z M72.832,3.623v0.04l-0.04,4.021l-4.136,0.08l0.12,1.81l4.016-0.08l-0.04,4.544l5.863,0.161   l0.481-4.786l6.063-0.12l-0.12-1.81l-5.783,0.08l0.402-3.458l-6.827-0.442V3.623z"/>
	<path fill="#FFFFFF" d="M134.384,8.408l-0.04-1.931L120.449,6.76l0.401-2.855l-6.425-0.684V6.92l-13.975,0.282l0.081,1.93   L134.384,8.408z M106.434,15.284l22.368,0.041l0.241-5.751l-22.528,0.362L106.434,15.284z M123.261,11.625l0.08,1.689l-11.123,0.04   l-0.081-1.648L123.261,11.625z M99.568,24.091l2.972,0.322l3.052-5.389l24.054-0.644l2.288,5.509l2.731-0.482l-0.281-7.077   l-34.173,0.684L99.568,24.091z M106.675,25.981l22.046-0.282l0.241-5.75l-22.529,0.362L106.675,25.981z M123.18,22l0.081,1.688   l-10.803,0.362l-0.401-1.971L123.18,22z M110.811,40.257l0.603-2.977l12.007-0.281l-0.04,1.126l-2.57,0.965v1.528l8.795,0.161   l-0.201-13.552l-23.572,0.482l0.401,12.788L110.811,40.257z M123.541,31.289l-11.243,0.241v-2.051l11.284-0.321L123.541,31.289z    M123.461,35.149v0.04l-11.123,0.241V33.38l11.163-0.241l-0.04,2.051V35.149z"/>
</g>
</svg>