<?xml version="1.0" encoding="utf-8"?>
<!-- Generator: Adobe Illustrator 16.0.0, SVG Export Plug-In . SVG Version: 6.00 Build 0)  -->
<!DOCTYPE svg PUBLIC "-//W3C//DTD SVG 1.1//EN" "http://www.w3.org/Graphics/SVG/1.1/DTD/svg11.dtd">
<svg version="1.1" id="Layer_1" xmlns="http://www.w3.org/2000/svg" xmlns:xlink="http://www.w3.org/1999/xlink" x="0px" y="0px"
	 width="316.348px" height="68px" viewBox="0 -10 316.348 68" enable-background="new 0 -10 316.348 68" xml:space="preserve">
<g>
	<path fill="#FFFFFF" d="M50.668,51.14l22.905-0.193l0.386-24.059l-23.676,0.642L50.668,51.14z M65.488,30.095L65.36,48.122
		l-5.967,0.064l-0.385-17.964L65.488,30.095z M28.405,21.819l37.469-0.514L67.093-2.37L27.377-0.958L28.405,21.819z M56.315,18.482
		l-18.543,0.256L37.451,1.543l19.248-0.512L56.315,18.482z M22.437,51.396l22.905-0.192l0.386-24.061l-23.676,0.643L22.437,51.396z
		 M30.777,30.414v0.066l6.48-0.129l-0.128,18.027l-5.967,0.065l-0.386-17.966L30.777,30.414L30.777,30.414z"/>
	<path fill="#FFFFFF" d="M91.821,38.691l-0.963,13.667L92.654,53l6.672-13.024l0.386-12.64l2.952-0.256l-1.027,24.829l8.726-0.514
		L110.877,24l-11.101,0.578l0.256-7.893l11.1-0.384l0.256-17.195l-7.698-0.513l-0.772,15.398l-2.822,0.065l0.512-16.745
		l-8.982-1.027L91.821,38.691z M131.277,42.733l0.13,10.202l8.981-0.256l0.13-10.074l7.762-0.129l-0.128-2.758l-7.636,0.127
		l0.128-8.66l5.326-0.13l1.348-28.807l-16.104,0.578l3.273-6.736L124.734-5l-0.706,8.085l-9.432,0.321l1.348,28.423l15.206-0.386
		l0.129,8.533l-4.556,0.063l1.861-5.966l-7.699-1.925l-2.696,8.019l-4.428,0.064l0.066,2.822L131.277,42.733z M138.464,16.043
		l-3.209,0.129V5.522l3.337-0.129L138.464,16.043z M126.788,5.778l0.129,10.906l-3.208,0.129l-0.257-10.907L126.788,5.778z
		 M123.771,19.766l3.145-0.191l0.129,9.109l-3.017,0.065L123.771,19.766z M138.272,28.427v0.063l-3.017,0.065v-9.497l3.145-0.128
		l-0.128,9.56V28.427z"/>
	<path fill="#FFFFFF" d="M163.834,51.845L165.76,53l7.506-8.214l10.65,6.866l33.619,1.283l3.336-8.149l-22.07,1.285l-0.193-9.688
		l17.646-0.835l-0.131-2.888l-17.578,0.836l-0.193-10.139l14.117-0.257l0.705-25.729l-42.539,1.155l2.055,25.343l15.91-0.321
		l0.449,23.033l-4.363,0.257l-9.559-4.812l5.902-10.329l-9.305-5.328L163.834,51.845z M202.521,0.71v0.064l0.129,19.505
		l-20.338,0.514l-1.092-19.505l21.301-0.514V0.71L202.521,0.71z"/>
	<path fill="#FFFFFF" d="M236.68,23.742l7.508-0.191l0.832,18.606l-1.924,0.256l-1.027-13.857l-6.158,1.152l1.092,13.73
		l-2.375,0.387l4.107,8.404l18.35-9.56l-0.578,4.171l2.439,0.962l7.186-22.007l-0.707,16.168l-1.861,10.073l2.568,0.643l6.736-7.252
		l1.217-31.053l2.119-0.065l0.641,34.583l-2.693,1.475l0.385,2.311l9.943-0.129l-0.898-38.432l8.918-0.192l-0.064-2.823
		l-12.381,0.257l0.512-15.847l-9.494-0.321l0.32,16.36l-12.898,0.321l0.066,2.823l8.018-0.192l-0.383,9.367l-5.969-3.144
		l-2.758,19.376l-6.096,1.028l0.193-7.572l5.516-0.385l-0.129-2.889l-5.324,0.387l0.129-7.315l4.17-0.129l0.771-23.354l-20.787,0.77
		L236.68,23.742z M248.484,20.407l-4.361,0.257l-0.514-17.451h4.619L248.484,20.407z M285.313,20.92v0.064l2.053,23.995l6.93-2.822
		l-6.801-22.648l-2.182,1.476V20.92z"/>
</g>
</svg>
