<?xml version="1.0" encoding="utf-8"?>
<!-- Generator: Adobe Illustrator 16.0.0, SVG Export Plug-In . SVG Version: 6.00 Build 0)  -->
<!DOCTYPE svg PUBLIC "-//W3C//DTD SVG 1.1//EN" "http://www.w3.org/Graphics/SVG/1.1/DTD/svg11.dtd">
<svg version="1.1" id="Layer_1" xmlns="http://www.w3.org/2000/svg" xmlns:xlink="http://www.w3.org/1999/xlink" x="0px" y="0px"
	 width="186px" height="44px" viewBox="0 0 186 44" enable-background="new 0 0 186 44" xml:space="preserve">
<g>
	<path fill="#EA1573" d="M23.247,15.887l0.04,6.475l-4.778,0.081l0.04,1.77l4.738-0.081v5.711l-6.345,0.041l0.041,1.77l6.304-0.08
		l0.04,8.365l5.903-0.242l-0.12-8.164l8.071-0.08l-0.08-1.729l-8.031,0.081l-0.081-5.792l6.345-0.12l-0.04-1.77l-6.305,0.121
		l-0.12-6.475l8.232-0.121l-0.081-1.77l-5.782,0.081l4.899-8.164l-6.145-2.092l-2.449,10.336l-6.184,0.081l4.096-2.614l-5.461-7.481
		l-1.888,0.442l2.57,9.693l-3.373,0.04l0.04,1.77L23.247,15.887z M1,13.917l1.084,0.764L6.18,9.372l2.61-0.201l-1.767,5.067
		l-5.1,0.523l0.602,14.358l13.172-0.162l0.481-15.604l-3.814,0.362l2.569-3.901l-2.489-3.017L7.747,7.361L9.273,5.39L3.972,3.822
		L1,13.917z M6.944,16.007l0.16,4.706L6.06,20.793l-0.201-4.746L6.944,16.007z M1.282,39.053l1.727,1.246l1.847-3.258l2.369,2.092
		l3.936-4.183l1.205,5.067l5.461-1.93l-3.854-8.045l-2.73,0.041l-4.378,5.751L5.94,35.111l2.008-3.5l-5.06-1.85L1.282,39.053z
		 M6.1,22.684l1.084-0.081l0.201,4.706L6.301,27.35L6.1,22.684z M10.076,27.229l0.04-4.907l1.325-0.081l-0.16,4.946L10.076,27.229z
		 M11.642,15.726v0.04l-0.161,4.545l-1.325,0.121l0.04-4.585l1.446-0.08V15.726z"/>
	<path fill="#EA1573" d="M54.44,22.442l10.762-0.241l0.04,3.498L51.79,25.9v1.77l13.492-0.201l0.081,5.511l-5.06-4.827l-9.396,9.895
		l0.883,1.207l13.573-5.912l0.08,6.676l6.104-0.322l0.04-9.209l12.128,7.721l2.771-5.75l-14.898-3.62v-1.448l14.898-0.201v-1.77
		l-14.857,0.201V22.04l10.279-0.241l0.924-17.092L53.797,5.43L54.44,22.442z M76.205,13.152l-4.537,0.121l0.04-6.516l4.617-0.081
		L76.205,13.152z M64.961,6.918l0.12,6.555l-4.738,0.121l-0.241-6.596L64.961,6.918z M60.423,15.404l4.658-0.12l0.08,5.148
		l-4.537,0.081L60.423,15.404z M76.084,20.15v0.04l-4.457,0.081l0.04-5.188l4.497-0.081l-0.08,5.188V20.15z"/>
	<path fill="#EA1573" d="M105.671,21.437l0.16,3.901l-4.296,0.121l0.441,13.955l13.694-0.121l0.361-14.236l-4.979,0.121l0.04-3.902
		l5.983-0.201l-0.08-1.729l-5.903,0.202l0.04-8.124l4.778-2.373l-4.216-5.309l-11.445,11.02l0.563,1.729l4.577-2.252l0.201,5.47
		l-5.421,0.161l0.04,1.77L105.671,21.437z M118.603,15.444l0.401,23.246l15.38-0.402l0.24-23.527l2.45-0.121l-0.04-1.77l-2.41,0.121
		l0.08-7.601l-5.621-0.523l-0.08,8.365l-4.779,0.201l-0.16-7.802l-5.662-0.322l0.16,8.365l-3.895,0.161l0.04,1.77L118.603,15.444z
		 M110.891,27.067l-0.2,10.456l-3.574,0.041l-0.281-10.416L110.891,27.067z M124.465,26.143l4.457-0.121l-0.08,10.697l-4.176,0.082
		L124.465,26.143z M124.425,24.332v0.041l-0.161-9.17l4.739-0.201l-0.081,9.25l-4.497,0.121V24.332z"/>
	<path fill="#EA1573" d="M169.593,38.892l14.335-0.12l0.241-15.082l-14.817,0.402L169.593,38.892z M178.868,25.699l-0.08,11.303
		l-3.734,0.039l-0.241-11.261L178.868,25.699z M155.658,20.512l23.451-0.322l0.763-14.84l-24.856,0.884L155.658,20.512z
		 M173.126,18.42l-11.605,0.161l-0.2-10.778l12.047-0.322L173.126,18.42z M151.924,39.053l14.336-0.121l0.24-15.082l-14.817,0.402
		L151.924,39.053z M157.144,25.9v0.041l4.056-0.08l-0.08,11.301l-3.734,0.041l-0.241-11.262V25.9z"/>
</g>
</svg>
