<?xml version="1.0" encoding="utf-8"?>
<!-- Generator: Adobe Illustrator 16.0.0, SVG Export Plug-In . SVG Version: 6.00 Build 0)  -->
<!DOCTYPE svg PUBLIC "-//W3C//DTD SVG 1.1//EN" "http://www.w3.org/Graphics/SVG/1.1/DTD/svg11.dtd">
<svg version="1.1" id="Layer_1" xmlns="http://www.w3.org/2000/svg" xmlns:xlink="http://www.w3.org/1999/xlink" x="0px" y="0px"
	 width="174px" height="36px" viewBox="0 0 174 36" enable-background="new 0 0 174 36" xml:space="preserve">
<g>
	<g>
		<path fill="#523528" d="M19.235,33.271l13.299-0.449l0.639-24.947L18.446,8.176L19.235,33.271z M27.501,9.829l-0.226,21.376
			l-2.855,0.151L23.932,9.904L27.501,9.829z M10.819,2.428L4.958,1L4.058,11.595l-3.231,0.112v1.653l3.119-0.037L2.893,25.72
			L0,33.836l1.54,0.714l6.274-6.95l1.729-14.353l1.615-0.037l-0.713,17.807L8.19,32.482l0.188,1.277l7.89-0.301l0.188-22.353
			l-6.687,0.263L10.819,2.428z M66.941,2.239L53.189,2.616l0.151,1.953l7.514-0.3l0.902,9.693l-2.479-1.578l-6.087,10.82
			l-6.912,9.355l1.202,1.69l9.467-6.501l6.612-9.278l0.901,2.33l10.67,13.335l4.658-5.896L64.912,15.765L66.941,2.239z
			 M120.919,26.511l4.282-3.571l-3.456-5.634l-3.156,3.944l-1.051-2.441l-0.377-2.893l8.153-0.301l-0.037-1.653l-8.303,0.3
			l-1.541-12.323l-5.56-0.638l1.577,13.149l-6.273,0.263l-0.112-6.011l-4.435-0.451l7.139-2.179l-2.403-4.809L94.095,8.964
			l0.602,1.127l4.508-1.39l0.037,6.199l-6.612,0.225l0.076,1.654l6.536-0.226l0.038,5.522l-6.838,1.24l1.954,5.109l4.921-2.217
			l0.039,5.485L96.5,32.746l0.301,1.766l8.715-0.601l-0.188-10.219l3.644-1.842l-0.3-1.466l-3.382,0.678l-0.075-4.697l6.463-0.263
			l0.9,5.786l1.465,3.906l-7.023,5.824l0.601,1.428l8.002-3.418L118.439,35l7.363-3.381V30.19l-3.156,0.226L120.919,26.511z
			 M124.112,7.312l-5.335-5.222l-1.201,1.24l3.041,7.289L124.112,7.312z M159.908,2.39l-7.515,0.226l-3.267-0.564l0.037,2.667
			l-4.697-3.307l-6.424,18.935l1.164,0.79l2.63-3.909l0.826,17.208l4.659-0.64l-0.225-19.046l-3.419-0.3l5.522-8.229l0.526,28.14
			l4.771-0.938l-0.225-16.23l5.785-0.376L159.908,2.39z M154.084,4.231l1.466-0.037l0.037,5.297l-1.427,0.074L154.084,4.231z
			 M154.273,15.501l-0.076-4.207l1.428-0.039l0.037,4.208L154.273,15.501z M171.854,2.277L161.636,2.54l0.264,14.426l5.561-0.263
			l-0.188,14.314l-2.179,1.615l0.149,1.427l6.688,0.039L171.854,2.277z M167.496,15.125l-1.39,0.076l-0.073-4.547l1.539-0.037
			L167.496,15.125z M167.572,8.927l-1.577,0.037l-0.114-4.884l1.767-0.187L167.572,8.927z"/>
	</g>
</g>
</svg>
