<?xml version="1.0" encoding="utf-8"?>
<!-- Generator: Adobe Illustrator 16.0.0, SVG Export Plug-In . SVG Version: 6.00 Build 0)  -->
<!DOCTYPE svg PUBLIC "-//W3C//DTD SVG 1.1//EN" "http://www.w3.org/Graphics/SVG/1.1/DTD/svg11.dtd">
<svg version="1.1" id="Layer_1" xmlns="http://www.w3.org/2000/svg" xmlns:xlink="http://www.w3.org/1999/xlink" x="0px" y="0px"
	 width="247px" height="60px" viewBox="0 0 247 60" enable-background="new 0 0 247 60" xml:space="preserve">
<g>
	<path fill="#523528" d="M29.707,33.867L4.863,34.453L4.453,6.387l23.965-0.938l0.117,3.223l-4.688,0.117l-0.41,5.039l5.859-0.41
		l-0.469,11.836l-4.98,0.117l-0.117,6.211l5.801-0.059L29.707,33.867z M6.094,56.777l-0.059-2.578l19.16-0.293l-0.117-7.852
		L8.906,46.23l-0.117-2.578l16.289-0.176l-0.117-8.027l10.313,1.523l-0.352,6.445l16.816-0.176l0.059,2.578l-16.992,0.176
		l-0.41,7.793l20.391-0.293l0.117,2.578L6.094,56.777z M12.598,9.023l0.117,5.566l3.457-0.234V8.965L12.598,9.023z M21.445,22.91
		l0.234-6.445l-8.906,0.703l0.176,5.977L21.445,22.91v-0.059V22.91z M13.125,31.641h3.105l0.117-6.035l-3.34,0.117L13.125,31.641z
		 M31.875,6.504l21.211-0.293l0.352,2.227l-4.219,14.238l6.914,2.402l-3.867,9.258l-7.734-5.918l-10.957,5.449l-0.82-1.523
		l6.27-8.145l-6.445-4.922l0.938-1.992l7.969,2.754l2.52-11.191L31.699,9.082L31.875,6.504z"/>
	<path fill="#523528" d="M63.984,23.906v-2.813l5.801-0.469L69.609,5.566l8.438,1.523L77.871,19.98l3.926-0.293v2.578l-3.984,0.352
		l-0.117,8.906l5.742-1.992l0.703,1.523l-6.504,5.098l-0.293,20.039H66.563v-1.758l3.516-1.816L69.961,42.07l-3.633,2.871
		l-2.813-8.496l6.387-2.227l-0.117-10.84L63.984,23.906z M82.441,27.305l-0.059-2.578l11.895-0.176l-0.234-9.258l-9.023,0.176
		l-0.117-2.578l9.082-0.176l-0.176-8.027l9.199,0.703v7.148l10.488-0.234l0.059,2.578l-10.547,0.234l0.059,9.316l12.363-0.176
		l0.117,2.578l-5.625,0.059l0.117,6.621l5.039-0.117l0.059,2.578l-5.039,0.117l0.352,20.801l-11.953,0.234v-2.402l2.93-1.406
		l0.117-16.992l-17.93,0.41l-0.059-2.578l17.988-0.41l0.059-6.738L82.441,27.305z M85.078,40.254l1.699-2.109l13.066,6.094
		l-6.797,7.383L85.078,40.254v-0.059V40.254z"/>
	<path fill="#523528" d="M124.922,41.309l-0.059-2.578l20.684-0.469l0.059-9.668l-15.82,0.586l-0.117-2.578l15.938-0.586
		l0.059-8.965l-15.059,3.164l-1.055-2.285l30.527-13.887l6.211,8.73l-11.895,2.461l0.234,10.43l16.113-0.586l0.059,2.578
		l-16.113,0.586l0.234,9.844l20.391-0.469l0.117,2.578l-20.449,0.469l0.352,16.113l-15.176,0.117l-0.293-2.285l5.625-2.109
		l0.059-11.66L124.922,41.309V41.25V41.309z"/>
	<path fill="#523528" d="M189.105,35.039l11.191-29.531l8.438,5.918l-10.313,14.355l6.68,0.527l-0.352,29.648l-7.031,1.055
		l-1.582-28.008l-5.215,7.266L189.105,35.039z M213.188,4.453l10.43,5.156l-6.563,12.07l25.078-1.23l0.059,2.578l-13.359,0.645
		l-0.059,7.852l11.719-0.586l0.117,2.578l-11.895,0.645l-0.059,7.969l12.48-0.293l0.059,2.578l-12.539,0.293l-0.117,12.129
		l-8.145,0.527l-0.762-33.223l-4.043,0.176l-6.68,12.363l-1.816-1.523L213.188,4.453V4.395V4.453z"/>
</g>
</svg>
