<?xml version="1.0" encoding="utf-8"?>
<!-- Generator: Adobe Illustrator 16.0.0, SVG Export Plug-In . SVG Version: 6.00 Build 0)  -->
<!DOCTYPE svg PUBLIC "-//W3C//DTD SVG 1.1//EN" "http://www.w3.org/Graphics/SVG/1.1/DTD/svg11.dtd">
<svg version="1.1" id="Layer_1" xmlns="http://www.w3.org/2000/svg" xmlns:xlink="http://www.w3.org/1999/xlink" x="0px" y="0px"
	 width="174px" height="44px" viewBox="0 0 174 44" enable-background="new 0 0 174 44" xml:space="preserve">
<g>
	<path fill="#523528" d="M2.656,17.843l0.625-0.977l7.969,2.305l-3.125,4.063L2.656,17.843z M10.156,24.483l0.781,0.977
		L8.281,37.413l-5.469-3.125L10.156,24.483z M4.063,5.343l0.469-0.859l8.281,6.641l-4.531,3.672L4.063,5.343z M15.039,16.124
		l4.648,1.914l-3.086,7.266l1.68,0.625l2.422-6.094l4.375,2.578l-6.094,11.055l2.461-0.273l-0.352-2.344l2.148-0.547l1.445,3.516
		l2.344-0.234l1.172-2.773l-4.766-4.063l0.781-1.563l1.719,0.352l1.797-9.883l4.727,3.086l-4.414,7.227l2.031,0.43l2.773-6.445
		l4.375,2.617l-6.289,10.586l2.344-0.234l-0.352-2.344l2.148-0.547l2.891,7.07l-3.828,1.328l-0.391-2.617l-8.359,2.969L25,37.765
		l-2.695,0.938l-0.43-2.734l-8.594,2.656l-1.68-4.414l3.516-0.352l1.289-3.242l-5.078-5.82l0.195-1.406l2.383,0.898L15.039,16.124
		v-0.039V16.124z M12.656,15.304l-0.078-1.719l5.742-0.078L15.273,5.03l1.68-0.781l6.875,6.484l-4.57,2.773l5.898-0.078l2.617-9.648
		l6.602,2.344l-4.727,7.266l7.578-0.078l0.039,1.719L12.656,15.304z"/>
	<path fill="#523528" d="M47.32,30.812l-0.82-20l14.414-0.313l-0.234,10l6.602-0.195l-0.156-7.266l-4.922,0.156l-0.039-1.719
		l4.922-0.117l-0.117-7.109l6.094,0.313l-0.039,6.641l6.641-0.195l0.078,1.68l-6.719,0.195l-0.039,7.227l8.477-0.234l0.039,1.719
		l-8.516,0.234v2.93l8.984,3.945l-1.875,6.445l-7.148-6.289l-0.039,9.258l-5.313,0.156l-0.195-9.922l-8.867,8.867l-1.25-1.25
		l3.203-5.781L47.32,30.812z M52.438,28.78l2.578-0.313l0.43-15.938l-3.672,0.156L52.438,28.78z M64.313,23.233l3.047,3.125
		l-0.078-4.336l-6.641,0.195l-0.156,7.93L64.313,23.233v-0.039V23.233z"/>
	<path fill="#523528" d="M95.07,12.452l6.406,4.492l-9.414,15l-1.406-0.703L95.07,12.452z M103.742,4.562l6.172,0.313l0.742,32.461
		l-9.961,0.313v-2.109l3.086-0.781L103.742,4.562z M112.023,13.624l1.484-1.445l12.188,14.023l-5.781,4.727L112.023,13.624v-0.039
		V13.624z"/>
	<path fill="#523528" d="M147,2.726l6.68,1.328l-0.977,1.367l17.188,5.664l-3.281,6.328l-2.93-1.914l-0.117,11.797l3.477,1.602
		l-3.633,2.891l6.055,1.484l-4.961,5.664l-14.219-9.18l0.664-1.055l7.852,1.953l2.031-2.734l-14.531,0.195l0.156,4.727l7.148-0.391
		l0.898,1.719l-16.602,4.688l-2.148-5.391l4.922-0.273l-1.055-16.484l-4.336,3.555l-0.625-1.484L147,2.726z M148.133,10.499
		l6.523-0.234l-0.586,5.313l9.141-0.391l-12.109-7.852l-9.57,7.813l3.281,0.781l3.945-0.156L148.133,10.499z M157.82,17.296
		l-11.914,0.352l0.117,3.438l11.797-0.273V17.296v-0.039V17.296z M157.859,26.202V22.53l-11.758,0.273l0.117,3.633L157.859,26.202z"
		/>
</g>
</svg>
