<?xml version="1.0" encoding="utf-8"?>
<!-- Generator: Adobe Illustrator 16.0.0, SVG Export Plug-In . SVG Version: 6.00 Build 0)  -->
<!DOCTYPE svg PUBLIC "-//W3C//DTD SVG 1.1//EN" "http://www.w3.org/Graphics/SVG/1.1/DTD/svg11.dtd">
<svg version="1.1" id="Layer_1" xmlns="http://www.w3.org/2000/svg" xmlns:xlink="http://www.w3.org/1999/xlink" x="0px" y="0px"
	 width="218px" height="54px" viewBox="0 0 218 54" enable-background="new 0 0 218 54" xml:space="preserve">
<g>
	<g>
		<path fill="#3E1909" d="M1.588,30.531l8.931-23.572l6.735,4.724l-8.232,11.46l4.771,0.42l0.278,23.665l-6.173,0.842L7.197,25.714
			l-4.162,5.8L1.588,30.531z M17.019,16.127l-0.093-2.058l8.7-0.234l-0.047-7.39l7.203,1.31l-0.096,5.939l10.991-0.281l0.049,2.058
			l-11.041,0.281l-0.046,3.462l9.54-0.375l-0.745,12.954l-8.98,0.188l-0.235,3.975l-1.825,2.151l13.379,2.245L41.2,47.975
			l-13.749-6.267l-5.192,6.314l-1.872-0.889l2.855-7.344l-4.305-1.964l0.655-1.496l4.676,0.794l1.497-3.927v-1.076l-8.418,0.141
			L16.598,19.82l9.074-0.327l-0.046-3.602L17.019,16.127z M23.145,21.784l0.189,8.138l2.385-0.093l-0.047-8.138L23.145,21.784z
			 M35.633,29.549l-0.185-8.186l-2.855,0.095L32.5,29.642L35.633,29.549v-0.048V29.549z"/>
		<path fill="#3E1909" d="M77.718,44.608l-0.189-12.347l-6.921,0.046l-0.188,8.513l-8.978,7.39L60.32,46.9l2.805-10.337
			L62.939,7.007l4.722,1.356l31.476-0.843L98.716,46.9L88.381,47.18v-1.589l3.04-1.543l0.139-11.927l-6.967,0.093L84.45,44.469
			L77.718,44.608z M70.654,30.25l6.829-0.046l-0.14-8.559l-6.454,0.139L70.654,30.25z M70.937,19.728l6.407-0.14l-0.142-9.308
			l-6.08,0.188L70.937,19.728V19.68V19.728z M84.593,30.157l7.014-0.094l0.142-8.746l-7.064,0.141L84.593,30.157z M91.888,9.86
			l-7.063,0.187l-0.093,9.399l7.017-0.188L91.888,9.86z"/>
		<path fill="#3E1909" d="M122.466,5.836l5.987,3.977l-5.096,10.195l2.851,0.749v26.658l-5.051,0.188l-0.471-22.356l-1.773,3.553
			l-2.245-1.073L122.466,5.836z M127.705,15.845l5.424,0.188v23.385l-4.864,0.373L127.705,15.845z M134.769,33.804l-0.051-2.057
			l7.438-0.141l-0.235-5.847l6.361-0.188l0.046,5.941l9.965-0.141l0.092,2.059l-10.057,0.141l0.047,2.57l10.569,3.368l-3.742,6.313
			l-6.777-5.659l0.047,7.438h-5.614l-0.28-6.642l-11.505,5.332l-0.749-1.918l8.419-9.167l3.741,3.554l-0.234-5.098L134.769,33.804z
			 M136.639,5.836l7.901,1.545l-2.758,3.928l16.137-0.654l0.093,2.104l-4.256,0.188l-2.619,6.595l7.808,1.776l-3.367,6.549
			l-8.696-5.006l-10.569,3.883l-0.563-1.404l6.454-5.144l-2.523-1.451l0.561-1.636l3.973,0.89l1.357-4.725l-5.284,0.188l-3.79,5.425
			l-1.869-0.608L136.639,5.836V5.79V5.836z"/>
		<path fill="#3E1909" d="M177.128,35.396l5.239,3.6l-6.551,8.279l-1.308-0.889L177.128,35.396z M174.743,34.554l-0.049-2.059
			l21.468-0.561l0.046,2.057l-7.249,0.188l0.514,13.001l-6.92,1.03V34.366L174.743,34.554z M176.892,22.768l-0.045-2.058
			l6.034-0.141l-0.141-5.565l-7.765,0.047l-0.092-2.059l7.808-0.046l-0.139-6.642l7.108,0.374l-0.235,6.221l6.08-0.048l0.047,2.059
			l-6.219,0.046l-0.189,5.473l4.352-0.093l0.094,2.058L176.892,22.768z M177.221,28.799l-0.047-2.056l15.714-0.374l0.095,2.01
			L177.221,28.799z M190.036,36.938l1.497-1.311l6.547,5.847l-5.05,4.209L190.036,36.938z M198.266,6.82l7.484,1.402l-1.872,10.57
			l11.412-0.516l0.937,1.497l-5.798,9.212l-1.124-0.7l0.186-7.576l-7.155,0.374l-5.752,7.295l-1.682-0.188L198.266,6.82z
			 M202.006,25.386l6.552,0.842l-1.123,12.113l8.978,3.603l-2.993,6.173l-6.969-6.502l-9.119,6.596l-1.309-0.89l4.396-9.586
			L202.006,25.386v-0.047V25.386z"/>
	</g>
</g>
</svg>
