<?xml version="1.0" encoding="utf-8"?>
<!-- Generator: Adobe Illustrator 16.0.0, SVG Export Plug-In . SVG Version: 6.00 Build 0)  -->
<!DOCTYPE svg PUBLIC "-//W3C//DTD SVG 1.1//EN" "http://www.w3.org/Graphics/SVG/1.1/DTD/svg11.dtd">
<svg version="1.1" id="Layer_1" xmlns="http://www.w3.org/2000/svg" xmlns:xlink="http://www.w3.org/1999/xlink" x="0px" y="0px"
	 width="305px" height="62px" viewBox="0 0 305 62" enable-background="new 0 0 305 62" xml:space="preserve">
<g>
	<path fill="#523528" d="M7.141,21.993l43.125-0.804l1.004-19.62l-45.2,0.938L7.141,21.993z M40.623,10.743l-24.308,0.268
		l-0.269-5.625l24.643-0.268L40.623,10.743z M3.458,28.556l0.535,22.835l-4.419,0.402l2.946,8.17l19.821-7.099l0.134,7.969
		l9.175-0.201l0.67-32.411l25.445-0.335l-0.066-2.946l-57.857,0.736l0.134,2.947L3.458,28.556z M42.832,52.194l-4.352,8.17
		l1.941,1.406l8.773-4.554l4.619,3.549l4.486-9.04l-5.088-1.674l3.615-14.264l-1.875-2.88L35.4,33.243v2.88l12.455-0.067
		l-2.879,11.25l-8.572-2.813l-1.072,1.875L42.832,52.194z M16.449,14.024l24.174-0.2l-0.066,4.419l-23.907,0.536L16.449,14.024z
		 M13.302,36.993l8.839-0.2l0.067,4.888l-8.84,0.201L13.302,36.993z M22.342,49.717l-8.839,0.803l-0.067-5.691l8.839-0.201
		L22.342,49.717z M22.007,28.288v0.066l0.134,5.491l-8.839,0.201l-0.134-5.625l8.839-0.067V28.288z"/>
	<path fill="#523528" d="M91.102,30.899l0.066,6.563l-9.711,0.134l0.068,2.946l9.643-0.134l0.066,6.295l-6.094-5.357l-4.285,15.134
		l2.277,1.607l8.102-9.911l0.135,12.992l8.771-1.005l0.135-10.045l7.232,3.349l1.271-7.434l-8.438-2.009v-3.75l9.441-0.134
		l-0.066-2.946l-9.309,0.134l0.068-6.696l8.973-0.201l-0.135-2.946l-5.959,0.134l4.553-10.379l-8.705-2.277l-2.746,12.857
		l-8.369,0.2l5.289-2.009l-6.094-10.245l-2.344,0.268l0.537,11.986l-4.219,0.135l0.066,2.946L91.102,30.899z M108.377,14.092
		l-0.133-2.88l-8.371,0.201l1.072-9.576l-10.18-1.406l0.469,11.184l-9.777,0.268l0.068,2.946L108.377,14.092z M131.078,2.774v0.067
		l-10.445,14.263l-6.697-4.688l-2.41,42.724l2.209,0.736l7.434-13.259l0.602-10.715l4.756-0.133v29.263l8.838-0.803l-1.004-28.729
		l5.424-0.134l-0.066-2.946l-17.746,0.535l0.736-9.106l16.139-7.701l-7.768-9.308V2.774z"/>
	<path fill="#523528" d="M174.525,22.864l5.893-8.84l-14.197-11.25l-1.809,1.741L174.525,22.864z M175.193,36.189l4.354-10.647
		l-15.469-1.54l-1.072,1.674L175.193,36.189z M163.074,52.931l8.705,7.165l8.639-21.495l-1.205-1.875L163.074,52.931z
		 M182.359,60.766h5.893l4.555-6.897l-0.201-7.232l17.275-0.469l-0.133,10.38l-4.152,1.941l0.268,2.277h14.6l-0.67-41.384
		l-15.336,0.603l0.336-19.018l-10.514,0.134l0.066,12.188L181.957,1.837l-2.477,2.076l6.094,15.87l8.771-5.156l0.066,5.759
		l-12.188,0.469L182.359,60.766z M206.199,17.104l1.875,1.607l14.063-11.518l-9.375-6.228L206.199,17.104z M210.082,31.502
		l-17.879,0.603l-0.201-8.37l18.215-0.603L210.082,31.502z M210.082,34.382v0.066l-0.133,8.772l-17.412,0.469l-0.268-8.638
		l17.813-0.604V34.382z"/>
	<path fill="#523528" d="M253.529,37.663l44.063-1.005l0.67-28.594l-19.955,0.269l2.879-6.027l-11.719-2.076l-0.805,8.237
		l-16.406,0.2L253.529,37.663z M288.217,11.279l0.066,5.624l-25.646,0.536l-0.336-5.625L288.217,11.279z M246.766,58.824l1.34,1.406
		l13.393-11.116l-8.84-7.97L246.766,58.824z M264.043,60.632l31.07-0.87L291.9,48.913l-4.02,8.17l-14.195,0.535V39.672l-11.25,0.268
		L264.043,60.632z M280.65,54.002l7.5-6.964l-10.982-6.897l-1.072,1.406L280.65,54.002z M296.988,57.886l8.438-4.688l-11.115-11.518
		l-1.607,0.938L296.988,57.886z M263.238,28.689l25.111-0.535v5.356l-24.775,0.871L263.238,28.689z M262.77,20.319v0.066
		l25.514-0.603v5.424l-25.178,0.536l-0.336-5.357V20.319z"/>
</g>
</svg>
