<?xml version="1.0" encoding="utf-8"?>
<!-- Generator: Adobe Illustrator 16.0.0, SVG Export Plug-In . SVG Version: 6.00 Build 0)  -->
<!DOCTYPE svg PUBLIC "-//W3C//DTD SVG 1.1//EN" "http://www.w3.org/Graphics/SVG/1.1/DTD/svg11.dtd">
<svg version="1.1" id="Layer_1" xmlns="http://www.w3.org/2000/svg" xmlns:xlink="http://www.w3.org/1999/xlink" x="0px" y="0px"
	 width="218px" height="54px" viewBox="0 -5 218 54" enable-background="new 0 -5 218 54" xml:space="preserve">
<g>
	<g>
		<path fill="#523528" d="M34.601,22.879l1.607,10.049l-6.931,0.955L35.454,6.2l-9.541-2.01l-2.512,30.496l-4.771,0.654l2.26,7.535
			l15.819-6.783l1.355,8.391l7.131-2.764l-8.688-19.793L34.601,22.879z M13.81,26.898l0.05-4.068l4.269-0.403l-0.251-2.211
			l-3.967,0.352l0.151-7.586l-7.583-2.01l10.596-3.165l-3.616-6.833L0.101,10.922l0.301,1.858l5.675-1.708l0.301,10.199
			l-5.474,0.502l0.251,2.21l5.273-0.502l0.1,3.266L0,37.098l0.201,2.461l6.578-3.768l0.251,9.295l6.428-1.105l0.251-13.164
			l3.766,2.715l2.21-4.623L13.81,26.898z M70.677,43.779l1.205,1.105l7.281-6.531l-5.473-3.416L70.677,43.779z M89.71,40.613
			l4.52-3.064l-5.373-4.924l-1.055,1.057L89.71,40.613z M66.709,20.669L73.69,7.254l-4.57-4.923l-8.034,0.401l-4.471-1.206
			l0.051,43.157l6.528-0.252v-7.535l7.382,2.109l2.411-16.025L66.709,20.669z M64.701,34.686h-1.507l0.101-29.893l3.917-0.301
			l-3.616,16.529l3.415,3.165L64.701,34.686z M73.288,25.742l0.101,2.061l20.64-0.703l-0.15,2.713l-18.229,0.352v2.109l23.653-0.352
			l0.301-5.023l1.857-0.051l-0.15-2.01l-1.557,0.051l0.302-4.722L75.648,20.97l0.401,2.059l18.229-0.653l-0.15,2.713L73.288,25.742z
			 M100.055,4.24l-5.022-5.677L81.876,3.888l-5.072-2.311l-3.565,11.455l1.557,0.703l6.528-7.688l3.516-0.352l1.004,6.13l-7.281,0.2
			l0.2,2.262l5.122-0.15l0.15,2.712l-9.842,0.302l0.15,2.261l26.967-0.804l-0.251-2.261L90.011,16.7l0.352-2.713L99,13.786
			l-0.251-2.261l-1.707,0.051l4.77-2.864l-5.423-4.119L100.055,4.24z M86.396,11.827l5.272-2.513l-3.917-3.918l5.574-0.503
			l2.762,6.683L86.396,11.827z M91.216,42.623l-4.721,0.504l-0.15-9.748l-6.98-1.154l0.703,12.811l14.764-0.553l-1.606-4.822
			L91.216,42.623z M94.53,35.188l2.562,9.596l4.72-3.516l-5.824-6.934L94.53,35.188z M157.725,16.147l-0.201-2.411L142.76,14.49
			l3.314-10.752l-8.235-2.512l-4.521,25.372l1.809,0.201l6.177-9.848L157.725,16.147z M153.908,19.815l-8.035-2.11l-1.255,14.52
			l-5.977-2.262l-0.603,1.709l5.122,4.119l-5.322,8.088l1.405,1.006l9.09-4.924l6.177,4.975l3.615-7.588l-6.628-2.512
			L153.908,19.815z M129.101,34.988l0.101-13.013h4.168l-0.051-2.211h-4.117l0.101-11.655l4.82-0.15l-0.101-2.211L113.533,6.3
			l0.05,2.211l8.437-0.252l0.653,27.481l-2.009,0.252l-0.502-20.147l-5.323,0.151l0.803,20.648l-3.063,0.352l2.46,6.684
			l19.535-6.934l-0.201-2.412L129.101,34.988z M193.601,13.835l6.327-7.284l0.904-0.05l2.31,9.043l6.83-3.416L206.758,6.2
			l6.578-0.302l-0.15-2.16L201.937,4.24l1.808-2.06l-8.135-2.763l-3.717,13.564L193.601,13.835z M196.262,25.24l6.479-0.1v5.828
			l-2.963,1.557l0.2,1.709l10.195,0.1V22.729l-13.86,0.301l0.05-2.663l17.827-0.352l-0.05-2.21l-17.727,0.352l0.1-3.768h-8.587
			l0.101,3.918l-17.476,0.302l0.101,2.211l17.425-0.302l0.101,2.712l-14.915,0.303V35.34l8.035-0.604l-0.603-9.193l7.533-0.152
			l0.301,13.014l-3.615-5.074l-14.714,10.248l1.004,1.758l17.376-5.979l0.15,6.08l7.03-0.15l0.15-6.33l14.463,5.525l2.662-7.535
			l-17.024-1.457L196.262,25.24z M178.435,7.607l2.36-0.102l1.456,8.692l6.228-2.563l-1.858-6.381l5.323-0.2l-0.15-2.161
			l-11.35,0.452l2.611-2.964l-8.136-2.764l-3.917,13.666l1.708,0.854L178.435,7.607z"/>
	</g>
</g>
</svg>
