<?xml version="1.0" encoding="utf-8"?>
<!-- Generator: Adobe Illustrator 16.0.0, SVG Export Plug-In . SVG Version: 6.00 Build 0)  -->
<!DOCTYPE svg PUBLIC "-//W3C//DTD SVG 1.1//EN" "http://www.w3.org/Graphics/SVG/1.1/DTD/svg11.dtd">
<svg version="1.1" id="Layer_1" xmlns="http://www.w3.org/2000/svg" xmlns:xlink="http://www.w3.org/1999/xlink" x="0px" y="0px"
	 width="130px" height="220px" viewBox="0 0 130 220" enable-background="new 0 0 130 220" xml:space="preserve">
<g>
	<path fill="#3C1B0F" d="M90.676,123.387l4.567-6.852l-11.003-8.718l-1.401,1.35L90.676,123.387z M91.193,133.715l3.373-8.252
		l-11.987-1.193l-0.83,1.297L91.193,133.715z M81.802,146.689l6.746,5.553l6.695-16.658l-0.935-1.453L81.802,146.689z
		 M96.747,152.762h4.567l3.528-5.346l-0.155-5.605l13.39-0.362l-0.104,8.045l-3.218,1.506l0.208,1.765h11.313l-0.519-32.074
		l-11.885,0.467l0.26-14.739l-8.147,0.104l0.052,9.446l-9.601-8.875l-1.92,1.608l4.723,12.3l6.799-3.996l0.052,4.463l-9.444,0.363
		L96.747,152.762z M115.225,118.924l1.452,1.244l10.898-8.926l-7.267-4.827L115.225,118.924z M118.232,130.082l-13.856,0.467
		l-0.155-6.488l14.116-0.467L118.232,130.082z M118.232,132.313v0.054l-0.104,6.799l-13.494,0.362l-0.207-6.694l13.805-0.467
		V132.313z"/>
	<path fill="#3C1B0F" d="M88.133,198.631l34.148-0.779l0.519-22.162l-15.465,0.209l2.231-4.672l-9.082-1.606l-0.623,6.383
		l-12.715,0.156L88.133,198.631z M115.016,178.182l0.053,4.359l-19.877,0.416l-0.26-4.359L115.016,178.182z M82.893,215.031
		l1.037,1.09l10.379-8.615l-6.851-6.178L82.893,215.031z M96.279,216.432l24.08-0.674l-2.489-8.408l-3.114,6.332l-11.002,0.414
		v-13.908l-8.719,0.207L96.279,216.432z M109.15,211.293l5.813-5.396l-8.512-5.346l-0.83,1.09L109.15,211.293z M121.813,214.305
		l6.539-3.635l-8.613-8.926l-1.245,0.727L121.813,214.305z M95.657,191.676l19.462-0.416v4.152l-19.202,0.676L95.657,191.676z
		 M95.294,185.188v0.054l19.772-0.468v4.203l-19.514,0.416l-0.26-4.151L95.294,185.188L95.294,185.188z"/>
	<path fill="#3C1B0F" d="M12.288,28.922l53.535-0.997L67.07,3.568L10.958,4.732L12.288,28.922z M53.852,14.957L23.676,15.29
		l-0.333-6.983l30.591-0.333L53.852,14.957z M7.716,37.07l0.665,28.348l-5.486,0.499l3.657,10.142l24.606-8.812l0.167,9.893
		l11.388-0.249l0.832-40.236l31.588-0.415l-0.082-3.658L3.227,33.495l0.166,3.658L7.716,37.07z M56.595,66.416l-5.403,10.142
		l2.411,1.746l10.89-5.653l5.735,4.406l5.569-11.223l-6.317-2.078l4.488-17.707l-2.326-3.575L47.368,42.89v3.574L62.83,46.38
		l-3.575,13.967l-10.64-3.492l-1.33,2.328L56.595,66.416z M23.843,19.03l30.009-0.249l-0.083,5.486l-29.677,0.665L23.843,19.03z
		 M19.936,47.544l10.973-0.249l0.083,6.068l-10.973,0.249L19.936,47.544z M31.158,63.339l-10.973,0.998l-0.083-7.066l10.973-0.25
		L31.158,63.339z M30.742,36.737v0.084l0.167,6.816l-10.973,0.249l-0.167-6.982l10.973-0.083V36.737z"/>
	<path fill="#3C1B0F" d="M14.366,142.133l0.083,8.146l-12.054,0.166l0.083,3.658l11.971-0.166l0.083,7.813l-7.564-6.649
		l-5.32,18.787l2.826,1.995l10.059-12.305l0.166,16.129l10.89-1.248l0.166-12.469l8.978,4.155l1.579-9.229l-10.474-2.492v-4.656
		l11.721-0.166l-0.083-3.658l-11.555,0.166l0.083-8.313l11.139-0.25l-0.167-3.658l-7.398,0.166l5.653-12.885l-10.807-2.826
		l-3.408,15.961l-10.391,0.25l6.567-2.494l-7.565-12.719l-2.909,0.332l0.665,14.881l-5.237,0.166l0.083,3.658L14.366,142.133z
		 M35.813,121.268l-0.167-3.576l-10.391,0.25l1.33-11.886l-12.636-1.746l0.582,13.882l-12.137,0.332l0.083,3.658L35.813,121.268z
		 M63.993,107.217v0.083l-12.968,17.708l-8.313-5.818l-2.993,53.037l2.744,0.914l9.227-16.459l0.748-13.301l5.902-0.168v36.33
		l10.973-0.998l-1.246-35.664l6.732-0.166l-0.083-3.658l-22.029,0.666l0.914-11.307l20.034-9.561L63.993,107.3V107.217z"/>
</g>
</svg>
