<?xml version="1.0" encoding="utf-8"?>
<!-- Generator: Adobe Illustrator 16.0.0, SVG Export Plug-In . SVG Version: 6.00 Build 0)  -->
<!DOCTYPE svg PUBLIC "-//W3C//DTD SVG 1.1//EN" "http://www.w3.org/Graphics/SVG/1.1/DTD/svg11.dtd">
<svg version="1.1" id="Layer_1" xmlns="http://www.w3.org/2000/svg" xmlns:xlink="http://www.w3.org/1999/xlink" x="0px" y="0px"
	 width="130px" height="220px" viewBox="0 0 130 220" enable-background="new 0 0 130 220" xml:space="preserve">
<g>
	<path fill="#3C1B0F" d="M36.102,65.03l0.418,8.479L7.33,73.675l0.084,3.99l70.804-0.415l-0.083-3.99l-29.856,0.166l0.25-8.646
		l16.179-0.416l-0.166-3.99l-15.846,0.416l0.166-6.816l23.602-0.665l-0.083-3.99l-60.714,1.662l0.168,3.99l23.852-0.665l0.25,6.733
		l-16.847,0.416l0.083,3.99L36.102,65.03z M14.669,44.996l53.708-0.997l1.251-30.177l-25.019,0.666l4.42-10.06L35.769,0.937
		L32.433,14.82l-19.099,0.499L14.669,44.996z M56.367,27.373l-29.772,1.08l-0.167-9.892l30.023-0.665L56.367,27.373z M26.846,40.922
		v0.083l-0.168-8.812l29.689-1.081l-0.083,9.561l-29.438,0.332V40.922z"/>
	<path fill="#3C1B0F" d="M5.495,161.611l-1.251,17.707l2.336,0.832l8.673-16.877l0.5-16.375l3.837-0.334l-1.335,32.172l11.343-0.666
		l0.666-35.496l-14.428,0.748l0.334-10.225l14.428-0.498l0.334-22.279l-10.008-0.665l-1.001,19.952l-3.669,0.082l0.667-21.697
		l-11.676-1.33L5.495,161.611z M56.785,166.85l0.166,13.217l11.676-0.332l0.167-13.053l10.091-0.166l-0.166-3.574l-9.925,0.166
		l0.167-11.223l6.922-0.166l1.752-37.324l-20.934,0.748l4.254-8.729L48.278,105l-0.917,10.474l-12.26,0.416l1.751,36.826
		l19.766-0.498l0.167,11.055l-5.922,0.084l2.419-7.73l-10.008-2.494l-3.503,10.391l-5.754,0.084l0.083,3.656L56.785,166.85z
		 M66.125,132.268l-4.17,0.166v-13.801l4.337-0.166L66.125,132.268z M50.947,118.967l0.166,14.131l-4.17,0.166l-0.333-14.131
		L50.947,118.967z M47.027,137.088l4.086-0.248l0.167,11.803l-3.919,0.084L47.027,137.088z M65.875,148.311v0.084l-3.92,0.082
		v-12.303l4.087-0.166l-0.167,12.387V148.311z"/>
	<path fill="#3C1B0F" d="M105.404,218.855l18.457-0.154l0.311-19.42l-19.078,0.518L105.404,218.855z M117.348,201.869l-0.104,14.553
		l-4.809,0.053l-0.311-14.502L117.348,201.869z M87.465,195.189l30.192-0.414l0.982-19.109l-32.002,1.139L87.465,195.189z
		 M109.954,192.496l-14.941,0.207l-0.259-13.879l15.51-0.414L109.954,192.496z M82.656,219.063l18.457-0.154l0.311-19.42
		l-19.077,0.518L82.656,219.063z M89.378,202.129v0.053l5.222-0.104l-0.104,14.551l-4.809,0.053l-0.31-14.5V202.129z"/>
	<path fill="#3C1B0F" d="M87.051,125.266l-0.038-1.705l13.474-0.232l-0.191-5.072l6.502,0.465l-0.387,4.492l14.364-0.27l0.077,1.664
		l-10.688,0.193l4.997,2.17l-5.77,4.566l12.041,2.982l-3.872,6.35l-12.623-5.771l-2.555,2.055l-15.1,3.717l-0.928-1.123
		l13.086-7.123l-8.208-3.756l0.348-1.703l11.306,2.787l5.381-5.111L87.051,125.266z"/>
	<path fill="#3C1B0F" d="M82.808,138.016l3.481,1.172l39.375-0.463l0.092,1.633l-37.865,0.432l-1.201,11.83l-4.806,10.627
		l-1.108-0.43L82.808,138.016v-0.029V138.016z"/>
	<path fill="#3C1B0F" d="M110.088,139.984l-0.045,6.215l12.296-0.229l0.047,2.012l-12.343,0.229v5.166l10.238-0.045l0.091,1.965
		l-10.376,0.047v4.34h15.222l0.092,2.012l-36.248,0.047l-0.046-2.012h13.941l-0.092-4.342l-8.503,0.045l-0.046-2.012l8.549-0.045
		l-0.09-5.027l-7.909,0.137l-6.856,7.633l-1.875-0.912l5.852-14.035l6.992,2.744l-2.283,2.512l6.033-0.09l-0.092-6.262"/>
</g>
</svg>
