<?xml version="1.0" encoding="utf-8"?>
<!-- Generator: Adobe Illustrator 16.0.0, SVG Export Plug-In . SVG Version: 6.00 Build 0)  -->
<!DOCTYPE svg PUBLIC "-//W3C//DTD SVG 1.1//EN" "http://www.w3.org/Graphics/SVG/1.1/DTD/svg11.dtd">
<svg version="1.1" id="Layer_1" xmlns="http://www.w3.org/2000/svg" xmlns:xlink="http://www.w3.org/1999/xlink" x="0px" y="0px"
	 width="18px" height="10.5px" viewBox="-0.035 2.231 18 10.5" enable-background="new -0.035 2.231 18 10.5" xml:space="preserve">
<g>
	<path fill="#FFFFFF" d="M1.149,11.969c0.25,0.248,0.652,0.248,0.899,0L9.44,3.895c0.247-0.248,0.247-0.649,0-0.898
		c-0.249-0.25-0.651-0.25-0.899,0l-7.392,8.073C0.903,11.318,0.903,11.721,1.149,11.969z"/>
	<path fill="#FFFFFF" d="M8.488,2.995c0.248-0.249,0.652-0.249,0.898,0l7.393,8.074c0.248,0.249,0.248,0.651,0,0.899
		c-0.248,0.246-0.65,0.248-0.9,0L8.488,3.895C8.242,3.646,8.242,3.243,8.488,2.995z"/>
</g>
</svg>
