<?xml version="1.0" encoding="utf-8"?>
<!-- Generator: Adobe Illustrator 16.0.0, SVG Export Plug-In . SVG Version: 6.00 Build 0)  -->
<!DOCTYPE svg PUBLIC "-//W3C//DTD SVG 1.1//EN" "http://www.w3.org/Graphics/SVG/1.1/DTD/svg11.dtd">
<svg version="1.1" id="Layer_1" xmlns="http://www.w3.org/2000/svg" xmlns:xlink="http://www.w3.org/1999/xlink" x="0px" y="0px"
	 width="100px" height="100px" viewBox="0 0 100 100" enable-background="new 0 0 100 100" xml:space="preserve">
<path fill="#FFDF5D" d="M86.814,53.795c-2.06-5.231-8.045-5.477-12.931-7.493c-8.102-3.344-10.735-11.27-21.924-15.896
	c-11.188-4.626-27.634-4.251-36.158,9.072c-9.823,15.353,2.27,31.885,20.215,36.542C55.748,81.135,94.182,72.502,86.814,53.795z"/>
<path fill="#EACB56" d="M36.018,76.02C23.43,72.756,13.734,63.643,12.45,53.195c1.93,2.744,15.649,20.938,38.653,18.674
	c24.871-2.447,30.652-7.611,30.91-3.406c0,0.002-0.002,0.004-0.002,0.006C71.617,76.602,49.472,79.508,36.018,76.02z"/>
<path fill="#92CD8B" d="M32.981,24.377c0.919-1.212-3.515-5.406-8.463-6.31c-4.339-0.792-6.976-0.206-7.467,1.883
	C16.66,21.613,18,23.472,22.32,24.585C26.641,25.698,31.583,26.221,32.981,24.377z"/>
<path fill="#92CD8B" d="M33.004,23.52c0,0,0.711-5.197,7.784-7.012c7.073-1.815,9.661,2.136,7.358,4.479
	C45.844,23.329,37.695,21.364,33.004,23.52z"/>
<path fill="#FFFFFF" d="M42.273,46.671c0.016-1.758-0.92-2.615-1.64-2.542c-0.637,0.063-1.42,0.829-1.269,2.419
	c0.151,1.589,0.729,2.185,1.383,2.219C41.4,48.8,42.261,48.06,42.273,46.671z M27.319,48.134c0.015-1.626-0.852-2.42-1.517-2.353
	c-0.59,0.06-1.313,0.768-1.174,2.238c0.14,1.472,0.675,2.022,1.279,2.054C26.512,50.105,27.308,49.419,27.319,48.134z"/>
<path fill="none" stroke="#000000" stroke-width="2.791" stroke-miterlimit="10" d="M87.135,53.889
	c-2.08-5.282-8.121-5.532-13.052-7.568c-8.177-3.378-10.837-11.38-22.129-16.053s-27.887-4.298-36.484,9.15
	c-9.908,15.498,2.3,32.195,20.41,36.896C55.791,81.482,94.572,72.777,87.135,53.889z"/>
<path fill="none" stroke="#000000" stroke-width="1.396" stroke-linecap="round" stroke-linejoin="round" stroke-miterlimit="10" d="
	M59.098,51.229c0,0,2.148,3.125,7.178,4.965 M19.888,67.873c0,0-3.753,1.018-7.399,0.98 M49.803,77.777c0,0-1.325,1.486-3.931,5.951
	 M62.877,76.457c0,0-0.579,5.012-1.977,8.119 M42.74,56.121c0,0-3.43,3.379-9.734,4.361c-5.712,0.889-8.785-1.562-8.785-1.562"/>
<path fill="none" stroke="#000000" stroke-width="2.791" stroke-linecap="round" stroke-linejoin="round" stroke-miterlimit="10" d="
	M33.083,23.808c0.827-1.262-3.908-5.192-8.912-5.811c-4.389-0.541-6.976,0.195-7.312,2.308c-0.267,1.682,1.208,3.46,5.602,4.322
	C26.855,25.489,31.825,25.729,33.083,23.808z"/>
<path fill="none" stroke="#000000" stroke-width="2.791" stroke-linecap="round" stroke-linejoin="round" stroke-miterlimit="10" d="
	M33.083,23.808c0,0,0.582-5.209,7.609-7.159c7.026-1.949,9.711,1.951,7.467,4.337C45.916,23.372,37.72,21.563,33.083,23.808z"/>
<path fill="none" stroke="#000000" stroke-width="1.861" stroke-linecap="round" stroke-linejoin="round" stroke-miterlimit="10" d="
	M33.083,23.808c0,0-0.47,2.807,0.977,7.079"/>
<path fill="none" stroke="#000000" stroke-width="1.861" stroke-linecap="round" stroke-linejoin="round" stroke-miterlimit="10" d="
	M42.273,46.671c0.016-1.758-0.92-2.615-1.64-2.542c-0.637,0.063-1.42,0.829-1.269,2.419c0.151,1.589,0.729,2.185,1.383,2.219
	C41.4,48.8,42.261,48.06,42.273,46.671z"/>
<path fill="none" stroke="#000000" stroke-width="1.861" stroke-linecap="round" stroke-linejoin="round" stroke-miterlimit="10" d="
	M27.319,48.134c0.015-1.626-0.852-2.42-1.517-2.353c-0.59,0.06-1.313,0.768-1.174,2.238c0.14,1.472,0.675,2.022,1.279,2.054
	C26.512,50.105,27.308,49.419,27.319,48.134z"/>
</svg>
