<?xml version="1.0" encoding="UTF-8"?>
<!-- Generator: Adobe Illustrator 16.0.0, SVG Export Plug-In . SVG Version: 6.00 Build 0)  -->
<!DOCTYPE svg PUBLIC "-//W3C//DTD SVG 1.1//EN" "http://www.w3.org/Graphics/SVG/1.1/DTD/svg11.dtd">
<svg version="1.1" id="Layer_1" xmlns="http://www.w3.org/2000/svg" xmlns:xlink="http://www.w3.org/1999/xlink" x="0px" y="0px" width="140px" height="50px" viewBox="0 -11 140 50" enable-background="new 0 -11 140 50" xml:space="preserve">
<g>
	<path fill="#FFD100" d="M111.151,16.711c0.383,0.318,0.872,0.685,1.083,0.746c0.381,0.104,1.137,0.684,1.939,1.291   c0.209,0.152,0.41,0.31,0.612,0.452c0.895,0.657,1.039,0.76,1.958,0.814c0.064,0.005,0.109,0.005,0.162,0.005   c0.566,0,0.669-0.204,0.947-0.751c0.052-0.095,0.104-0.196,0.16-0.306c0.329-0.611,1.099-3.003,2.282-7.104   c0.837-2.917,2.437-6.474,3.021-7.005c0.564-0.507,0.604-0.574,0.438-0.904c-0.104-0.21-0.394-0.47-0.691-0.751   c-0.341-0.321-0.729-0.67-0.989-1.059c-0.462-0.699-2.183-1.97-3.183-2.441c-0.641-0.308-0.859-0.04-1.368,0.771   c-0.11,0.171-0.23,0.359-0.358,0.561c-0.704,1.007-2.142,4.548-2.87,6.489c-0.751,1.961-1.588,2.071-1.681,2.079l-0.207,0.012   l-0.013-0.211c0,0-0.179-4.149-0.363-7.88c-0.144-3.146-0.057-5.359,0.254-6.249c0.156-0.43,0.457-0.698,0.716-0.93   c0.191-0.17,0.364-0.321,0.445-0.5c0.098-0.191,0.034-0.281-0.145-0.511c-0.1-0.139-0.22-0.29-0.29-0.488   c-0.352-0.93-1.315-2.001-2.887-3.211c-0.589-0.45-1.104-0.682-1.52-0.682c-0.763,0-1.12,0.763-1.362,1.262l-0.07,0.139   c-0.329,0.67-0.017,2.773,0.203,4.312c0.219,1.462,0.357,4.84,0.415,10.07c0.064,4.129-0.315,4.43-0.751,4.779l-0.097,0.081   c-0.313,0.268-0.579,0.357-1.012,0.357c-0.231,0-0.51-0.028-0.9-0.069c-0.959-0.109-1.306-0.54-1.676-0.987   c-0.063-0.082-0.132-0.162-0.202-0.244c-0.502-0.568-0.63-0.958-0.891-1.79c-0.241-0.829-0.311-1.128-0.368-1.548   c-0.013-0.129-0.161-0.182-0.602-0.32c-0.288-0.09-0.651-0.2-1.091-0.39c-0.96-0.41-1.357-0.369-1.728-0.361   c-0.281,0.012-0.56-0.008-0.94-0.069c-0.392-0.061-0.85-0.142-1.352-0.101c-0.769,0.053-1.358,0.99-1.709,1.551   c-0.129,0.199-0.111,0.279-0.111,0.292c0.023,0.057,0.21,0.126,0.353,0.167c0.088,0.032,0.19,0.061,0.268,0.101   c0.381,0.17,1.021,0.812,1.641,1.442c0.131,0.129,0.253,0.258,0.374,0.369c0.677,0.69,2.183,2.769,3.05,4.198   c0.907,1.501,0.376,2.221,0.348,2.25l-1.34,1.469c-0.094,0.103-0.122,0.203-0.11,0.321c0.052,0.521,0.93,1.189,1.363,1.522   c0.316,0.236,0.484,0.391,0.635,0.52c0.191,0.159,0.341,0.301,0.745,0.561c0.097,0.058,0.18,0.119,0.248,0.18   c0.181,0.13,0.274,0.199,0.361,0.199c0.214,0,0.613-0.351,1.196-0.91c1.918-1.848,2.917-2.16,3.885-2.448   c0.318-0.102,0.618-0.191,0.956-0.341c0.497-0.23,1.04-0.34,1.645-0.34c0.462,0,0.897,0.06,1.27,0.12   c0.231,0.028,0.44,0.068,0.619,0.081c0.791,0.05,1.353-0.102,1.969-0.36c0.296-0.122,0.556-0.31,0.711-0.431   c0.145-0.102,0.191-0.139,0.272-0.139h0.133l0.06,0.109c0.074,0.119,0,0.229-0.069,0.33c-0.22,0.34-0.729,1.129-1.259,1.47   c-0.521,0.308-1.11,0.397-1.728,0.269c-0.213-0.05-0.479-0.029-0.682,0.012L111.151,16.711z M104.017,12.934l-0.082-0.078   c-0.012-0.014-0.342-0.34-0.578-0.921c-0.092-0.21-0.282-0.507-0.433-0.747c-0.277-0.438-0.354-0.558-0.271-0.703l0.063-0.107   l0.14-0.007c0.08,0,0.148,0.04,0.23,0.095c0.14,0.102,0.221,0.186,0.289,0.262c0.15,0.163,0.271,0.292,1.051,0.502   c0.531,0.139,0.825,0.242,1.028,0.314c0.242,0.082,0.323,0.109,0.491,0.109h0.67v0.41c-0.168,0-0.941,0.308-1.242,0.46   c-0.248,0.137-1.098,0.36-1.189,0.384l-0.109,0.027H104.017z M115.143,11.574h-0.296l0.105-0.277c0.162-0.43,0.4-2.281,0.532-3.736   c0.113-1.342,0.484-2.844,0.922-3.734c0.254-0.513,0.677-0.807,1.161-0.807c0.272,0,0.541,0.089,0.732,0.248   c0.66,0.541,0.222,1.495-0.104,2.181l-0.087,0.19c-0.043,0.089-1.064,2.372-1.629,4.011c-0.43,1.25-0.887,1.909-1.338,1.909V11.574   z M71.71,17.123c0.805,0,1.188,0.301,1.491,0.541c0.081,0.063,0.161,0.123,0.243,0.176c0.396,0.239,0.754,0.638,1.069,0.992   c0.182,0.199,0.353,0.39,0.498,0.514c0.15,0.129,0.34,0.196,0.565,0.196c0.269,0,0.569-0.089,0.856-0.26   c0.523-0.313,0.742-0.95,0.752-0.963c0,0,0.189-1.286,0.759-4.097c0.462-2.221,1.62-3.962,2.399-5.112   c0.24-0.361,0.451-0.67,0.592-0.921c0.209-0.377,0.301-0.639,0.249-0.768c-0.028-0.122-0.181-0.199-0.45-0.341   c-0.059-0.033-0.117-0.061-0.188-0.102c-0.442-0.239-0.633-0.458-0.881-0.738c-0.15-0.171-0.32-0.357-0.58-0.602   c-0.699-0.637-1.688-1.478-1.701-1.489l-0.428-0.357h0.57c0,0,0.209,0,0.527-0.102c0.332-0.101,1.002-0.329,1.502-0.999   c0.508-0.682,1.037-1.73,1.447-2.878c0.41-1.133,2.081-4.02,2.531-4.552c0.191-0.219,0.34-0.341,0.449-0.442   c0.119-0.097,0.18-0.146,0.229-0.269c0.021-0.048-0.061-0.121-0.357-0.38c-0.211-0.167-0.49-0.419-0.842-0.768   c-0.537-0.541-0.961-0.833-1.46-1.161c-0.351-0.24-0.751-0.512-1.237-0.91c-0.725-0.58-1-0.67-1.082-0.69l-0.02,0.012   c-0.013,0.009-1.373,0.537-2.322,0.828c-1.039,0.321-2.518,0.5-3.476,0.549c-0.93,0.061-1.688-0.07-2.151-0.139l-0.199-0.031h-0.09   c-0.313,0-0.69,0.231-0.82,0.502c-0.102,0.208,0.28,1.149,0.869,1.938c0.512,0.691,0.91,1.043,0.91,1.051l0.17,0.15l-0.15,0.159   c0,0-0.52,0.543-1.108,1.189c-0.198,0.219-0.634,0.641-1.044,1.051c-0.458,0.45-0.986,0.97-1.075,1.092   c-0.053,0.069-0.13,0.179-0.265,0.179c-0.219,0-0.234-0.219-0.268-0.491c-0.02-0.13-0.04-0.289-0.069-0.491   c-0.109-0.679-0.629-1.349-1.092-1.648l-0.269-0.18c-0.75-0.511-0.949-0.65-0.881-0.867c0.013-0.041,0.061-0.171,0.261-0.171   c0.142-0.02,0.729-0.47,1.173-0.788c0.35-0.266,0.707-0.537,1.027-0.742c0.76-0.494,0.869-0.745,1.088-1.246l0.021-0.035   c0.15-0.34-0.098-0.581-0.554-0.991l-0.104-0.094c-0.319-0.28-0.682-0.848-1.019-1.409c-0.211-0.32-0.402-0.621-0.552-0.82   c-0.041-0.038-0.099-0.099-0.248-0.099c-0.472,0-1.242,0.529-1.62,0.999c-0.572,0.699-2.191,2.066-3.402,3.021   c-1.478,1.148-2.959,1.969-4.048,2.256c-0.401,0.098-0.739,0.188-0.87,0.249l0.029,0.061l0.02,0.046   c0.07,0.15,0.82,0.28,1.181,0.338c0.288,0.052,0.562,0.101,0.768,0.162l0.198,0.056l-0.061,0.191   c-0.081,0.272-0.279,0.48-0.479,0.683c-0.15,0.15-0.3,0.3-0.362,0.458c-0.061,0.15-0.041,0.199,0.289,0.382l0.162,0.089   c0.338,0.208,1.259,1.329,1.54,1.729c0.275,0.393,0.85,0.916,0.86,0.922l0.118,0.109l-0.078,0.144   c-0.02,0.028-0.441,0.808-1.271,1.77c-0.394,0.459-0.566,0.918-0.479,1.308c0.068,0.3,0.289,0.54,0.646,0.702   c0.762,0.337,1.34-0.052,2.282-0.71l0.238-0.171c1.121-0.779,1.812-2.25,2.06-2.842c0.301-0.734,0.887-1.506,0.913-1.539   l0.131-0.17l0.158,0.131c0,0,0.35,0.291,0.698,0.52c0.142,0.094,0.442,0.149,0.832,0.149c0.13,0,0.22-0.007,0.22-0.007l0.539-0.041   l-0.39,0.389c-0.012,0.013-1.128,1.141-2.058,2.153c-0.982,1.059-3.662,2.913-4.341,3.154c-0.401,0.141-0.89,0.389-1.202,0.551   l0.371,0.248l-0.33,0.15c-0.008,0.005-0.719,0.349-1.21,1.181c-0.418,0.704,0.45,2.572,1.23,3.656   c0.451,0.617,1.58,2.839,2.49,4.624c0.422,0.818,0.786,1.537,0.961,1.85c0.514,0.919,1.471,1.329,1.657,1.329   c0.087,0,0.41-0.151,0.763-0.31c0.678-0.309,1.808-0.832,3.494-1.412c0.883-0.309,1.593-0.455,2.162-0.455L71.71,17.123z    M66.643,14.424c-0.117,0-0.226-0.014-0.328-0.037c-0.54-0.141-0.984-0.709-1.003-0.736l-0.027-0.047L64.73,12.24l0.369,0.071   c0.006,0.011,0.593,0.122,1.518,0.24c0.376,0.048,0.588,0.101,0.715,0.121c0.063,0.02,0.109,0.03,0.133,0.03   c0.02,0,0.061-0.01,0.162-0.069l1.096-0.561l0.082,1.499l-0.021,0.053c-0.009,0.02-0.228,0.528-0.882,0.609   c-0.166,0.021-0.349,0.061-0.516,0.101c-0.252,0.058-0.503,0.119-0.763,0.119L66.643,14.424z M72.51,13.377   c-0.465,0-0.631-0.062-0.684-0.088l-0.07-0.041l-0.02-0.077c-0.102-0.301-0.32-1.041-0.143-1.361   c0.062-0.089,0.143-0.15,0.244-0.17c0.166-0.033,0.239-0.012,0.289,0c0.101,0,0.32-0.081,0.678-0.231   c0.913-0.397,1.482-0.91,1.482-0.918l0.34-0.312l0.009,1.722c0.012,0.301,0.021,0.792-0.711,1.129   c-0.69,0.321-0.889,0.321-1.38,0.321L72.51,13.377z M65.33,9.796c-0.615,0-1.037-0.289-1.121-0.779   c-0.121-0.699-0.23-1.087-0.555-1.521c-0.061-0.086-0.121-0.169-0.182-0.257c-0.281-0.409-0.549-0.794-1.066-0.929   c-0.199-0.048-0.229-0.171-0.219-0.241c0.012-0.213,0.189-0.253,0.75-0.37c0.27-0.059,0.59-0.127,0.752-0.191   c0.418-0.177,1.299-0.592,1.299-0.592l0.41-0.187L65.277,5.16c0,0-0.221,0.792-0.062,1.442c0.053,0.179,0.081,0.337,0.101,0.487   c0.07,0.423,0.102,0.602,0.439,0.744l0.301,0.129c0.109,0.05,0.121,0.05,0.15,0.05c0.048,0,0.141-0.021,0.291-0.041l0.22-0.041   l1.479-0.239l0.26-0.049l-0.077,0.91l-0.021,0.04c-0.013,0.017-0.354,0.549-1.202,0.691c-0.739,0.118-1.539,0.467-1.547,0.467   l-0.053,0.013c0,0-0.061,0.007-0.17,0.007L65.33,9.796z M75.579,8.892h-0.165c-0.054,0-0.26-0.012-0.793-0.251   c-0.246-0.109-0.315-0.227-0.361-0.329c-0.049-0.009-0.232-0.02-0.607,0c-1.206,0.061-1.799,0-1.819,0l-0.187-0.02V7.033   l0.166-0.029c0.041,0,1.092-0.183,1.921-0.183h0.572c0.378-0.009,0.528-0.02,0.759,0.09c0.248,0.121,0.658,0.43,0.679,0.438   l0.101,0.082L75.553,8.92L75.579,8.892z M69.097,4.702c-0.171,0-0.382-0.013-0.688-0.049c-1.54-0.182-1.69-0.251-1.709-0.483   c-0.008-0.129,0.08-0.228,0.265-0.28c0.419-0.118,2.217-0.82,2.892-1.279c0.205-0.139,0.392-0.289,0.569-0.439   c0.451-0.361,0.861-0.71,1.401-0.662l0.053,0.013c0.658,0.057,0.836,0.098,1.328,0.658c0.458,0.531,1.047,1.059,1.06,1.072   l0.198,0.179l-0.219,0.149c-0.009,0.013-0.39,0.261-1.109,0.5c-0.881,0.301-1.939,0.5-2.83,0.552   c-0.349,0.02-0.552,0.049-0.723,0.069c-0.158,0.02-0.275,0.04-0.458,0.04L69.097,4.702z M75.195,0.642   c-0.177,0-0.369-0.02-0.589-0.061c-0.415-0.069-0.82-0.118-1.14-0.166c-0.662-0.082-0.761-0.102-0.772-0.292   c-0.009-0.028,0-0.183,0.179-0.231c0.162-0.041,0.889-0.548,1.932-1.388c0.918-0.75,1.068-0.979,1.178-1.19   c0.021-0.04,0.053-0.081,0.073-0.129c0.089-0.142,0.126-0.2-0.171-0.541c-0.17-0.19-0.482-0.43-0.75-0.64   c-0.528-0.42-0.779-0.61-0.699-0.837c0.021-0.072,0.077-0.203,0.369-0.174c0.598,0.061,0.869,0,1.568-0.229   c0.762-0.251,1.74-0.551,2.131-0.551c0.049,0,0.139-0.021,0.24-0.048c0.13-0.03,0.268-0.07,0.41-0.07   c0.158,0,0.291,0.06,0.381,0.169c0.129,0.159,0.166,0.42,0.109,0.8c-0.15,0.93-0.641,1.979-1.522,3.199   c-0.13,0.179-0.239,0.35-0.358,0.521c-0.461,0.67-0.852,1.25-1.318,1.47c-0.102,0.048-0.191,0.089-0.28,0.138   c-0.292,0.15-0.56,0.299-1.039,0.299L75.195,0.642z M62.958-0.67c-0.114,0-0.505-0.037-0.69-0.617   c-0.121-0.362-0.305-0.642-0.465-0.893c-0.062-0.09-0.123-0.179-0.171-0.269c-0.056-0.089-0.179-0.22-0.287-0.34   c-0.226-0.24-0.349-0.379-0.274-0.541l0.051-0.118l0.17-0.011c0.025,0,0.053,0,0.084,0.011c0.279,0.061,0.94,0.11,1.281,0.061   c0.379-0.061,0.82-0.284,0.828-0.284l0.159-0.077l0.612,0.897l0.65,0.491l-0.199,0.17c-0.012,0.009-0.633,0.532-0.84,0.86   c-0.273,0.398-0.772,0.658-0.793,0.671l-0.08,0.028h-0.057L62.958-0.67z M34.81,7.21c0.115,0,0.21,0.022,0.3,0.077   c0.299,0.184,0.286,0.436,0.271,0.696c-0.005,0.138-0.013,0.293,0.008,0.492c0.063,0.671,0,4.75-0.184,6.345   c-0.11,0.976-0.411,3.561,0.096,4.58c0.499,0.996,1.286,1.721,1.878,1.721c0.473,0,0.771,0.027,0.931,0.049   c0.104-0.192,0.335-0.78,0.204-2.146c-0.107-1,0.115-4.419,0.233-6.257c0.097-1.475,0.348-4.948,0.565-5.394   c0.179-0.352,0.61-0.401,1.013-0.401c0.231,0,0.508,0.02,0.82,0.04l0.109,0.009c0.28,0.02,0.8,0.032,1.539,0.032   c0.89,0,1.9-0.012,2.542-0.02h0.609c0.179,0,0.621-0.231,0.87-0.593c0.149-0.207,0.199-0.406,0.141-0.596   c-0.23-0.682-1.34-2.213-1.94-2.432c-0.621-0.228-1.519-0.281-2.25-0.11c-0.759,0.179-2.261,0.382-3.02,0.321l-0.329-0.028   c-0.442-0.033-0.76-0.053-0.76-0.552c0-0.069-0.011-0.191-0.032-0.341c-0.081-0.939-0.118-1.799,0.309-2.031   c0.223-0.118,0.502-0.179,0.893-0.179c0.26,0,0.528,0.033,0.799,0.05c0.229,0.02,0.451,0.04,0.639,0.04   c0.28,0,0.642,0.02,0.982,0.053c0.289,0.017,0.569,0.037,0.768,0.037c0.142,0,0.182-0.007,0.19-0.007   c0.159-0.041,0.521-0.211,0.521-0.959c0-0.893-0.329-1.932-0.89-2.124c-0.382-0.129-0.699-0.179-1.1-0.179   c-0.341,0-0.751,0.04-1.409,0.13c-1.32,0.179-5.002,0.422-5.152,0.43l-0.337,0.02l0.129-0.3c0.029-0.061,0.679-1.56,1.288-2.371   c0.301-0.391,0.84-1.129,1.352-1.828c0.532-0.722,1.032-1.401,1.178-1.591l0.041-0.041c0.182-0.219,0.491-0.589,0.442-0.999   c-0.032-0.268-0.223-0.54-0.572-0.8c-1.08-0.82-1.868-0.791-2.549,0.139c-0.358,0.482-0.748,1.401-1.121,2.281   c-0.369,0.87-0.748,1.77-1.117,2.299c-0.731,1.039-2.021,2.35-2.071,2.406l-0.179,0.182l-0.142-0.21   c-0.008-0.008-0.471-0.709-0.812-0.998c-0.277-0.238-1.056-0.589-1.34-0.698l-0.467-0.191l0.467-0.191   c0.373-0.149,1.4-0.616,1.733-1.039c0.41-0.531,0.638-2.01,0.479-2.261c-0.231-0.33-0.999-0.72-1.92-1.138   c-0.22-0.102-0.418-0.202-0.601-0.292c-0.63-0.31-1.06-0.533-1.349-0.491c-0.502,0.072-2.082,0.68-2.131,1.34   c-0.061,0.82,0,1.167,0.48,1.604c0.54,0.493,0.721,0.678,0.729,0.685l0.05,0.048l0.011,0.07c0.02,0.211-0.17,0.792-2.431,1.733   c-2.291,0.947-3.2,1.73-3.209,1.738L20.958-2.88h-0.061c-0.011,0-1.208,0.118-2.492,0.589c-0.318,0.118-0.629,0.22-0.918,0.309   c-0.75,0.239-1.4,0.45-1.32,0.719c0.17,0.566,0.635,1.152,1.382,1.733c0.75,0.578,1.202,0.938,2.255,1.055   c0.622,0.081,0.835,0.198,0.942,0.313c0.124-0.04,0.208-0.092,0.569-0.313l0.539-0.329c0.89-0.54,2.931-2.051,2.948-2.071   l0.572-0.417l-0.26,0.657c-0.02,0.053-0.511,1.271-1.42,2.38c-0.159,0.19-0.31,0.36-0.439,0.519   c-0.368,0.43-0.739,0.88-0.787,1.039c0.109,0.061,0.28,0.073,0.405,0.073c0.069,0,0.15,0,0.217-0.005   c0.07,0,0.139-0.008,0.199-0.008c0.301,0,0.382,0,0.812,0.069c0.109,0.021,0.188,0.089,0.22,0.19   c0.068,0.248-0.162,0.549-1.655,1.832c-0.141,0.117-0.26,0.219-0.341,0.296c-0.199,0.17-0.561,0.442-0.91,0.695   c-0.291,0.219-0.67,0.5-0.827,0.629c0.009,0.049,0.029,0.089,0.048,0.102c0.027-0.013,0.091-0.033,0.169-0.061   c0.329-0.101,0.598-0.17,0.728-0.17c0.141,0,0.218,0.082,0.239,0.159c0.048,0.184-0.119,0.292-0.27,0.381   c-0.28,0.176-0.502,0.321-0.681,0.439c-0.199,0.141-0.341,0.23-0.48,0.3c-0.101,0.054-0.21,0.069-0.319,0.089   c-0.191,0.034-0.399,0.072-0.731,0.321l-0.167,0.13c-0.532,0.4-1.08,0.811-0.852,1.605c0.088,0.279,0.17,0.575,0.251,0.881   c0.228,0.808,0.467,1.643,0.768,2.525c0.129,0.373,0.271,0.798,0.41,1.228c0.321,0.97,0.653,1.981,0.859,2.351   c0.089,0.159,0.17,0.289,0.249,0.398c0.182,0.26,0.334,0.491,0.43,0.997c0.041,0.24,0.032,0.431,0.025,0.569l-0.006,0.04   c0.05-0.021,0.13-0.04,0.246-0.09c0.341-0.142,0.569-0.251,0.751-0.341c0.24-0.122,0.44-0.211,0.728-0.28   c0.243-0.061,0.401-0.097,0.601-0.097c0.179,0,0.39,0.027,0.812,0.09c0.229,0.034,0.41,0.083,0.569,0.131   c0.402,0.109,0.642,0.142,1.12-0.109c0.89-0.447,2.091-1.291,2.579-1.957c0.109-0.141,0.211-0.272,0.313-0.39   c0.398-0.479,0.54-0.649,0.137-1.063c-0.551-0.549-0.93-1.02-1.06-1.178c-0.068-0.02-0.141-0.07-0.19-0.152   c-0.109-0.211-0.121-0.629,0.792-2.036c0.26-0.403,0.479-0.731,0.67-1c0.76-1.126,0.849-1.291,0.609-1.641   c-0.491-0.73-1.859-2.051-2.191-2.051h-0.691l0.58-0.38c0.102-0.069,0.272-0.159,0.41-0.221c-0.028-0.082-0.048-0.176-0.008-0.272   c0.061-0.138,0.2-0.218,0.438-0.218c0.532,0,0.65,0.013,1.06,0.5c0.321,0.39,0.581,0.492,1.3,0.731   c0.251,0.082,0.421,0.171,0.58,0.251c0.292,0.15,0.47,0.228,0.961,0.159c0.78-0.116,1.288-0.249,1.669-0.355   c0.289-0.077,0.479-0.129,0.642-0.129L34.81,7.21z M23.46,14.587c-0.148,0-0.286-0.062-0.436-0.187   c-0.081-0.068-0.146-0.109-0.199-0.15c-0.288-0.182-0.335-0.321-0.293-0.893c0.055-0.707,0.055-0.987-0.047-1.25   c-0.139-0.357-0.076-0.646-0.068-0.678l0.087-0.348l0.253,0.251c0.013,0.008,0.261,0.239,0.532,0.239h0.849   c0.19,0,0.41-0.04,0.48-0.06c0.089-0.041,0.291-0.041,0.389,0.077c0.111,0.122,0.15,0.321,0.131,0.622   c-0.009,0.149-0.009,0.291-0.02,0.421c0,0.488-0.009,0.991-0.619,1.381c-0.121,0.07-0.23,0.146-0.321,0.208   c-0.28,0.19-0.47,0.32-0.69,0.32L23.46,14.587z M22.503,9.865c-0.281,0-0.436-0.104-0.695-0.364   c-0.139-0.142-0.372-0.247-0.578-0.347c-0.301-0.139-0.537-0.248-0.546-0.479c-0.007-0.205,0.193-0.315,0.26-0.354   c0.122-0.058,0.207-0.118,0.282-0.167c0.301-0.182,0.472-0.279,1.398-0.511c1.172-0.3,1.758-0.43,2.451-0.491   c0.26-0.02,0.52-0.078,0.731-0.129c0.19-0.041,0.332-0.082,0.441-0.082c0.15,0,0.22,0.073,0.248,0.122   c0.033,0.052,0.07,0.142,0.012,0.271c-0.068,0.159-0.389,0.711-1.34,1.357c-0.243,0.174-0.422,0.342-0.592,0.483   c-0.358,0.33-0.679,0.61-1.32,0.658c-0.17,0.013-0.3,0.033-0.41,0.041c-0.129,0.02-0.228,0.031-0.317,0.031L22.503,9.865z    M30.099,4.64c-0.068,0-0.137-0.014-0.196-0.042c-0.153-0.08-0.193-0.202-0.22-0.284c-0.036-0.109-0.094-0.275-0.786-0.5   c-1.1-0.35-2.699-0.417-2.72-0.419l-0.068-0.014l-0.351-0.15c-0.04-0.012-0.101-0.02-0.149-0.053   c-0.041-0.02-0.18-0.089-0.15-0.248l0.04-0.162h0.17c0.041,0,0.069,0,0.211,0.062l0.028,0.007c0.098-0.007,0.24-0.069,0.419-0.146   c0.312-0.142,0.73-0.321,1.381-0.39l0.572-0.061c0.768-0.068,0.967-0.101,1.25-0.382c0.179-0.186,0.268-0.43,0.357-0.649   c0.081-0.22,0.162-0.439,0.341-0.5c0-0.069,0.02-0.129,0.061-0.179l0.057-0.072h0.102c0.121,0,0.19,0.072,0.422,0.36   c0.15,0.191,0.248,0.361,0.337,0.491c0.19,0.309,0.251,0.398,0.601,0.398c0.24,0,0.54,0.02,0.849,0.04   c0.561,0.041,1.153,0.069,1.47,0.013c0.621-0.122,0.941-0.122,0.95-0.122h0.21l-0.121,2.152c0.039,0.058,0.052,0.118,0.032,0.187   c-0.054,0.199-0.292,0.26-0.961,0.26c-0.356,0-0.719-0.008-1.068-0.008c-0.329-0.012-0.65-0.012-0.951-0.012   c-0.341,0-0.601,0-0.819,0.02c-0.333,0.032-0.583,0.13-0.792,0.211c-0.159,0.068-0.302,0.121-0.438,0.121L30.099,4.64z    M26.735,0.136c-0.089,0-0.299,0-0.349-0.184c-0.02-0.077-0.011-0.199,0.17-0.301l0.078-0.047c0.421-0.24,1.071-0.604,2.051-1.06   C29.777-1.975,30.536-1.9,30.545-1.9l0.332,0.032l-1.152,1.808l-0.179-0.131c-0.008,0-0.098-0.048-0.309-0.048   c-0.182,0-0.381,0.02-0.621,0.07c-0.561,0.121-1.51,0.291-1.909,0.291L26.735,0.136z M22.367-2.653c-0.26,0-0.491,0-0.532-0.212   c-0.04-0.203,0.179-0.273,0.281-0.307c0.559-0.186,2.468-0.853,3-1.092c0.17-0.075,0.26-0.173,0.341-0.269   c0.159-0.178,0.369-0.374,0.877-0.232c0.622,0.171,0.913,0.178,0.913,0.178l0.2,0.001v0.204c0,0.069-0.041,0.718-1.239,1.054   c-0.301,0.09-0.552,0.162-0.792,0.231c-0.62,0.191-1.108,0.341-1.798,0.39c-0.482,0.029-0.971,0.06-1.292,0.06L22.367-2.653z"/>
	<path fill="#FFFFFF" d="M8.479,28.578v4.077H1.969v-4.077H0v10.458h1.969v-4.388h6.509v4.388h1.972V28.578 M102.207,28.578v4.087   h-6.509v-4.087h-1.974v10.458h1.974v-4.384h6.509v4.384h1.971V28.578 M127.563,28.578l0.022,7.397l-6.629-7.408v0.025V28.58h-1.873   v10.46h1.971v-7.398l6.612,7.398h1.872V28.58 M26.361,28.58h1.973v10.458h-1.973V28.58z M40.031,37.046V28.58h-1.969v10.457h8.656   v-1.993 M55.22,28.567l-2.063,0.013l-5.085,10.458h2.212l1.163-2.405h5.525l1.187,2.407l2.201-0.013L55.22,28.567z M52.417,34.639   l1.8-3.76l1.782,3.759H52.41L52.417,34.639z M112.56,28.568l-2.063,0.012l-5.085,10.46h2.212l1.163-2.396h5.527l1.185,2.408   l2.202-0.013l-5.14-10.46L112.56,28.568z M109.756,34.65l1.803-3.76l1.785,3.772h-3.588V34.65z M23.228,28.58h-1.969v8.474h-6.03   V28.58H13.26v8.998c0.009,0.255,0.099,1.433,1.248,1.462h7.462c1.138-0.029,1.239-1.201,1.248-1.449v-8.998L23.228,28.58z    M91.275,34.224c-0.041-1.421-1.348-1.393-1.348-1.393h-6.75V30.74h6.115v0.751l1.975-0.462v-0.866   c-0.033-1.213-0.963-1.38-1.251-1.404h-7.472c0,0-1.309-0.028-1.348,1.404v3.505c0.068,0.434,0.316,1.121,1.168,1.174v0.011h6.928   v2.092h-0.048h0.048h-6.115v-0.746l-1.973,0.475v0.769c0,0.027-0.008,1.449,1.23,1.502h7.64v-0.013   c1.061-0.057,1.18-1.138,1.192-1.426v-3.294L91.275,34.224z M71.359,28.58h-1.974v8.474h-6.029V28.58h-1.97v8.998   c0.013,0.255,0.102,1.433,1.25,1.462h7.46c1.14-0.029,1.242-1.201,1.249-1.449v-8.998L71.359,28.58z M139.998,36.331   c0,0.469-0.122,0.914-0.355,1.316c-0.233,0.409-0.558,0.733-0.957,0.967c-0.406,0.234-0.844,0.354-1.311,0.354   c-0.465,0-0.9-0.121-1.3-0.364c-0.398-0.235-0.723-0.553-0.956-0.963s-0.346-0.856-0.346-1.323c0-0.468,0.111-0.913,0.346-1.323   c0.232-0.409,0.557-0.728,0.957-0.963c0.399-0.231,0.837-0.354,1.301-0.354c0.474,0,0.903,0.122,1.311,0.354   c0.407,0.224,0.724,0.548,0.957,0.958c0.233,0.409,0.355,0.849,0.355,1.315L139.998,36.331z M139.483,36.331   c0-0.588-0.206-1.092-0.617-1.506c-0.41-0.423-0.905-0.627-1.491-0.627c-0.585,0-1.078,0.206-1.489,0.618   c-0.41,0.421-0.616,0.925-0.616,1.513s0.205,1.085,0.616,1.504c0.422,0.416,0.913,0.63,1.49,0.63c0.584,0,1.08-0.203,1.49-0.624   c0.422-0.41,0.625-0.906,0.625-1.495L139.483,36.331z M136.197,34.922h1.245c0.346,0,0.605,0.07,0.766,0.21   c0.153,0.147,0.235,0.34,0.235,0.585c0,0.189-0.059,0.354-0.181,0.49c-0.122,0.138-0.313,0.235-0.572,0.301   c0.107,0.042,0.189,0.084,0.233,0.128c0.069,0.065,0.148,0.162,0.229,0.286c0.001,0.012,0.15,0.286,0.45,0.819h-0.819   c-0.273-0.535-0.45-0.859-0.544-0.96c-0.086-0.109-0.18-0.162-0.272-0.162c-0.017,0-0.046,0-0.085,0.012v1.108h-0.695v-2.817   H136.197z M136.886,36.114h0.3c0.204,0,0.343-0.029,0.433-0.099c0.082-0.065,0.123-0.149,0.123-0.256c0-0.1-0.04-0.19-0.109-0.251   c-0.076-0.068-0.215-0.104-0.405-0.104h-0.329v0.708L136.886,36.114z"/>
</g>
</svg>