<?xml version="1.0" encoding="utf-8"?>
<!-- Generator: Adobe Illustrator 16.0.0, SVG Export Plug-In . SVG Version: 6.00 Build 0)  -->
<!DOCTYPE svg PUBLIC "-//W3C//DTD SVG 1.1//EN" "http://www.w3.org/Graphics/SVG/1.1/DTD/svg11.dtd">
<svg version="1.1" id="Layer_1" xmlns="http://www.w3.org/2000/svg" xmlns:xlink="http://www.w3.org/1999/xlink" x="0px" y="0px"
	 width="270px" height="60px" viewBox="0 0 270 60" enable-background="new 0 0 270 60" xml:space="preserve">
<g>
	<path fill="#523528" d="M9.915,11.339l0.631,5.863l9.456-0.567l-0.189-5.484l6.053-0.127l-0.19-2.836L19.75,8.313l-0.19-5.674
		L9.096,3.081l0.567,5.421l-8.7,0.127l0.189,2.835L9.915,11.339z M35.447,8.187l-6.492,0.189l0.188,2.836l6.304-0.189l-0.063,5.675
		l9.204,0.251l0.757-6.178l9.52-0.252l-0.189-2.837l-9.014,0.251l0.567-4.791L35.51,2.451L35.447,8.187z M0.774,30.821v0.061
		l8.258-0.125l0.251,24.335l43.186-0.128l-0.125-2.96l-33.667,0.124l0.19-21.497l36.187-0.567l-0.126-2.711L33.24,27.667
		l1.323-11.22l-10.968-0.758l0.692,12.104L0.711,28.109l0.063,2.773V30.821z"/>
	<path fill="#523528" d="M76.324,31.198l16.896-0.377l0.063,5.484l-21.119,0.313v2.774l21.183-0.315l0.126,8.637l-7.943-7.564
		L70.777,55.659l1.387,1.893l21.309-9.27L93.6,58.747l9.582-0.505l0.063-14.436l19.04,12.105l4.349-9.015l-23.389-5.675v-2.271
		l23.389-0.314v-2.775l-23.325,0.316v-5.611l16.139-0.378l1.45-26.794L75.315,4.53L76.324,31.198z M110.494,16.635l-7.123,0.189
		l0.063-10.213l7.251-0.127L110.494,16.635z M92.843,6.863l0.188,10.276l-7.438,0.188L85.215,6.99L92.843,6.863z M85.718,20.165
		l7.313-0.188l0.126,8.069l-7.124,0.127L85.718,20.165z M110.305,27.605v0.062l-6.997,0.127l0.063-8.133l7.061-0.125l-0.127,8.131
		V27.605z"/>
	<path fill="#523528" d="M165.809,10.078l0.063,3.468l-16.643,0.441l1.008,16.581l15.949-0.314v3.342l-21.497,1.826l3.026,6.495
		l36.88-6.872l5.232,6.936l7.818-4.352l-11.412-7.755l4.856-0.062l0.944-16.959l-16.266,0.442l0.189-3.53l20.238-0.505l-0.126-2.71
		l-19.984,0.503l0.187-4.853l-10.592-0.694l0.127,5.8l-22.19,0.568l0.063,2.773L165.809,10.078z M182.266,20.04l-6.747,0.189
		l0.124-4.161l6.936-0.126L182.266,20.04z M154.523,45.949l3.278,12.421l9.836-4.666l-8.135-7.816l15.321-0.315l-0.063,8.574
		l-3.973,1.953l0.504,2.9l13.869-0.758l-0.063-12.921l12.925-0.254l-0.063-2.773l-12.861,0.252l-0.06-5.423l-10.15,0.127
		l-0.064,5.548l-31.71,0.631l0.127,2.773L154.523,45.949z M165.937,16.32l0.063,4.224l-7.063,0.252l-0.314-4.349L165.937,16.32z
		 M159.126,23.569l6.937-0.251l0.061,4.161l-6.683,0.063L159.126,23.569z M175.202,27.352l0.189-4.35l6.684-0.188l-0.378,4.477
		L175.202,27.352z M180.876,29.938V30l1.64,2.206l-7.564,0.695l0.124-2.774L180.876,30V29.938z"/>
	<path fill="#523528" d="M234.11,21.679l-19.417,12.733l1.262,1.894l21.687-7.504l-0.44,21.373l-7.127-6.556L216.709,56.54
		l1.516,1.199l18.977-6.998l-0.063,3.025l-5.801,2.27v2.459l16.392-0.253v-15.13l15.886,13.24l5.675-8.888l-12.798-5.361
		l10.401-10.149l-8.322-6.556l-7.501,14.373l-3.341-1.386v-7.503l-9.143-2.396l7.627-2.646l-5.23-4.288l16.771-0.316l-0.127-2.711
		l-32.278,0.505l0.063,2.773L234.11,21.679z M213.181,47.715l1.259,1.828l22.444-10.844l-6.052-6.179L213.181,47.715z
		 M214.439,10.961v0.063l-1.071,11.474l4.666,0.504l4.854-8.7l37.135-0.692l3.528,8.637l5.043-0.631l-0.377-11.284l-22.127,0.314
		l0.691-9.141L235.562,1l0.441,9.772l-21.563,0.251V10.961z"/>
</g>
</svg>
