<?xml version="1.0" encoding="utf-8"?>
<!-- Generator: Adobe Illustrator 16.0.0, SVG Export Plug-In . SVG Version: 6.00 Build 0)  -->
<!DOCTYPE svg PUBLIC "-//W3C//DTD SVG 1.1//EN" "http://www.w3.org/Graphics/SVG/1.1/DTD/svg11.dtd">
<svg version="1.1" id="Layer_1" xmlns="http://www.w3.org/2000/svg" xmlns:xlink="http://www.w3.org/1999/xlink" x="0px" y="0px"
	 width="162px" height="36px" viewBox="0 0 162 36" enable-background="new 0 0 162 36" xml:space="preserve">
<g>
	<g>
		<path fill="#523528" d="M139.471,11.479l-0.15-1.628l-2.91,0.147l0.775-7.81l-6.193-0.444l0.52,8.513l-4.242,0.223l0.15,1.629
			L139.471,11.479z M138.807,16.067l-0.074-1.628l-9.473,0.408l0.074,1.629L138.807,16.067z M138.512,20.066l-0.074-1.629
			l-9.324,0.704l0.074,1.629L138.512,20.066z M128.193,34.28h10.758l0.443-11.81l-11.5,0.741L128.193,34.28z M134.678,32.502h-2.211
			l-0.146-7.811l2.652-0.146L134.678,32.502z M138.951,15.55l0.701,1.479l1.514-1.479l0.293,16.101l10.613-0.221l0.662-16.77
			l-11.018,0.371l4.166-4.034l8.916-0.444l-0.92,21.431l-2.283,1.184l0.146,1.555l7.186,0.149l1.07-26.318l-13.082,0.629
			l2.135-5.403l-5.82-2L138.951,15.55z M147.982,16.624l-0.072,5.181l-2.027,0.111l-0.074-5.33L147.982,16.624z M145.992,29.469
			v0.036l-0.072-5.96l1.953-0.037l-0.111,6.032l-1.77-0.035V29.469z"/>
		<path fill="#523528" d="M0.799,14.531l3.013-0.037L2.795,26.472L0,34.312L1.488,35l6.065-6.714l1.67-13.864l1.562-0.036
			L10.096,31.59l-2.18,1.415l0.182,1.234l7.626-0.291l0.182-21.595l-6.465,0.254l1.018-8.638L4.792,2.59L3.922,12.825l-3.123,0.109
			V14.531z M31.447,33.33l0.618-24.098L17.83,9.523l0.762,24.242L31.447,33.33z M23.604,31.879v0.037l-0.473-20.724l3.451-0.073
			l-0.218,20.651l-2.761,0.146V31.879z"/>
		<path fill="#523528" d="M73.368,34.312l-0.108-1.597l-3.849,0.072L70.1,22.516L47.404,23.35l-4.212-0.724l0.944,10.524
			l-2.761,0.037l0.11,1.56L73.368,34.312z M41.957,18.233l12.166-0.399l0.545-14.082L41.304,3.97L41.957,18.233z M49.328,5.567
			v4.645l-2.614,0.11L46.423,5.64L49.328,5.567z M56.991,22.115l4.067-6.097l5.229-0.107l-0.11,2.868l-2.723,1.015v1.852l8.57,0.108
			L71.843,2.735L56.882,2.99l-0.508,9.908l-2.142,8.274L56.991,22.115z M64.036,32.858l-2.47,0.036l0.181-8.419l2.724-0.072
			L64.036,32.858z M46.822,11.917l2.506-0.035v4.282l-2.214,0.254L46.822,11.917z M66.578,8.215H62.04l0.29-3.556h4.395
			L66.578,8.215z M48.784,24.802l2.179-0.073l0.618,8.312l-2.252,0.037L48.784,24.802z M55.648,24.621l2.143-0.035l-0.182,8.346
			l-2.143,0.035L55.648,24.621z M66.36,14.205v0.035l-4.794,0.074l0.328-4.391l4.612-0.073l-0.146,4.39V14.205z"/>
	</g>
	<g>
		<g>
			<path fill="#523528" d="M85.68,33.809l-0.037-1.623l29.923-0.037l0.074,1.623L85.68,33.809z M89.847,15.509l21.366-0.442
				l-0.553,14.352l-20.22,0.221L89.847,15.509z M105.234,16.875l-9.297,0.072l0.076,4.319l9.184-0.112L105.234,16.875z
				 M96.121,27.869l9.039-0.074l0.037-5.018l-9.148,0.111L96.121,27.869v-0.037V27.869z"/>
		</g>
		<g>
			<path fill="#523528" d="M92.328,6.977l3.836,4.243l-10.919,4.87l-1.034-1.218L92.328,6.977V6.94V6.977z M111.695,18.524
				 M96.902,15.868l-0.186-9.445L84.986,6.608l-0.037-1.623L96.684,4.8L96.609,1l6.049,0.147l-0.072,3.58l12.135-0.185l0.037,1.623
				L102.549,6.35l-0.039,1.476l12.988,2.509l-2.951,5.792l-10.074-6.014l-0.111,5.683L96.902,15.868z"/>
		</g>
	</g>
</g>
</svg>
