<?xml version="1.0" encoding="utf-8"?>
<!-- Generator: Adobe Illustrator 16.0.0, SVG Export Plug-In . SVG Version: 6.00 Build 0)  -->
<!DOCTYPE svg PUBLIC "-//W3C//DTD SVG 1.1//EN" "http://www.w3.org/Graphics/SVG/1.1/DTD/svg11.dtd">
<svg version="1.1" id="Layer_1" xmlns="http://www.w3.org/2000/svg" xmlns:xlink="http://www.w3.org/1999/xlink" x="0px" y="0px"
	 width="62px" height="28px" viewBox="0 0 62 28" enable-background="new 0 0 62 28" xml:space="preserve">
<g>
	<path fill="#3C1B0F" d="M11.278,8.375L11.153,7L8.185,7.188l0.313-6.906L3.122,0.656l0.469,6.813L0.216,7.656l0.125,1.375
		L11.278,8.375z M9.997,12.25l-0.063-1.375l-7.906,0.344l0.063,1.375L9.997,12.25z M9.747,15.625L9.685,14.25l-7.906,0.344
		l0.063,1.375L9.747,15.625z M1.247,27.625h8.875l0.375-9.969l-9.5,0.375L1.247,27.625z M6.497,26.125H4.872l-0.125-6.719l2-0.125
		L6.497,26.125z M12.247,2.5l2.969-0.094L14.56,6.438L12.372,5.5l-0.625,1.188l2.375,1.969l-2.875,6.656l0.75,0.625l5.281-4.625
		l2.594,2.156l2.25-3.875l-3.438-1.438l1.406-5.938l3.063-0.094l-0.375,10.25l-1.688,1.25l0.125,1.063l5.813-0.188l0.375-13.938
		l-15.25,0.563L12.247,2.5z M16.778,27.719l11.094-0.125l-0.844-3.688l-1.906,2.156l-5.063,0.125l0.25-10.719l-3.813-0.438
		L16.778,27.719z M10.997,26.281l1.063,0.438l3.531-7.938l-3.281-2.375L10.997,26.281z M22.185,25.344l2.781-1.563l-3.031-5.219
		l-0.813,0.469L22.185,25.344z M24.028,16.906v0.031l1.906,6.281l2.594-2.531l-3.719-4.313l-0.781,0.563V16.906z"/>
	<path fill="#3C1B0F" d="M61.784,27.25l-0.063-1.375h-4.844l0.156-11.5l4.219-0.094l-0.031-1.375L57.065,13l0.125-9.594l3.75-0.125
		l-0.063-1.344L45.534,2.469l0.031,1.375l6.813-0.25l0.219,22.281H50.69L50.315,11l-4.219,0.25l0.625,14.625h-1.875l0.031,1.375
		H61.784z M44.878,8.375L44.753,7l-3.375,0.188l0.219-6.469l-4.875-0.438l0.469,7.188l-3.375,0.188l0.125,1.375L44.878,8.375z
		 M43.597,12.25l-0.063-1.375l-7.906,0.344l0.063,1.375L43.597,12.25z M43.347,15.625l-0.063-1.375l-7.906,0.344l0.063,1.375
		L43.347,15.625z M34.847,27.625h8.875l0.375-9.969l-9.813,0.313L34.847,27.625z M40.347,19.25v0.031l-0.25,6.844h-1.625
		l-0.125-6.719l2-0.125V19.25z"/>
</g>
</svg>
