<?xml version="1.0" encoding="utf-8"?>
<!-- Generator: Adobe Illustrator 16.0.0, SVG Export Plug-In . SVG Version: 6.00 Build 0)  -->
<!DOCTYPE svg PUBLIC "-//W3C//DTD SVG 1.1//EN" "http://www.w3.org/Graphics/SVG/1.1/DTD/svg11.dtd">
<svg version="1.1" id="Layer_1" xmlns="http://www.w3.org/2000/svg" xmlns:xlink="http://www.w3.org/1999/xlink" x="0px" y="0px"
	 width="380px" height="68px" viewBox="0 0 380 68" enable-background="new 0 0 380 68" xml:space="preserve">
<g>
	<path fill="#FFFFFF" d="M39.961,39.061l0.404,21.637l9.467-0.271l0.271-21.568l10.548-0.271l-0.135-2.975L50.17,35.884
		l0.203-16.701l9.871-0.338l-0.067-2.975l-25.152,0.879l4.53-11.833L28.466,0.318l-3.516,29.48l1.893,1.014l6.559-11.021
		l6.221-0.203l0.27,16.498l-13.185,0.338l0.068,2.975L39.961,39.061z M23.936,18.236l-0.271-2.975l-6.626,0.406l1.15-14.131
		L7.1,0.724l0.474,15.483L0,16.681l0.271,2.975L23.936,18.236z M21.164,26.62l-0.135-2.975L3.922,24.389l0.135,2.975L21.164,26.62z
		 M20.623,33.922l-0.136-2.975L3.381,31.691l0.135,2.975L20.623,33.922z M2.231,59.886h19.202l1.623-21.568L1.691,39.129
		L2.231,59.886z M14.132,41.766v0.067l-0.541,14.808h-3.516l-0.27-14.537l4.327-0.271V41.766z"/>
	<path fill="#FFFFFF" d="M83.396,60.563l46.249-0.812l1.283-27.857l-49.154,1.217L83.396,60.563z M120.381,43.389l-9.331,0.338
		l0.271-8.316l9.195-0.203L120.381,43.389z M106.791,6.269h5.882l-2.097,12.237l-7.031,11.495l1.893,1.623l13.253-6.626
		l3.313-18.729h3.786l-0.812,18.661l-3.651,2.705l0.271,2.299l12.576-0.406l0.541-26.64l-28.127,0.406L106.791,6.269z M87.655,7.485
		l-6.829-1.69l1.285,16.295l-4.26,0.879l3.245,8.993l17.716-9.804l1.486,4.125l8.114-4.937L98.135,10.122l-2.975,1.826l2.502,6.964
		l-7.167,1.488l0.541-10.48l15.213-1.96l-4.597-8.384L87.655,7.485z M100.84,35.612l0.135,8.452l-8.315,0.271l-0.271-8.588
		L100.84,35.612z M92.727,47.378l8.248-0.271l0.137,10.143l-8.115,0.068L92.727,47.378z M120.11,56.979v0.067l-9.466,0.068
		l0.338-10.345l9.33-0.338l-0.202,10.614V56.979z"/>
	<path fill="#FFFFFF" d="M154.823,19.858v0.067l0.405,36.512l45.167-1.69l0.271,4.463l10.277-1.487l-2.299-40.501l-10.548,0.541
		l2.096,33.74l-12.644,0.472l0.676-48.749l-11.9-0.947l0.879,50.035l-11.562,0.406l0.271-33.064l-11.089,0.27V19.858z"/>
	<path fill="#FFFFFF" d="M326.246,37.641l17.107-0.135l-0.271,7.708l-13.862-1.69l-0.608,2.84l11.09,3.381l-9.398,10.413
		l2.704,1.217l15.213-9.061l27.655,8.384L380,49.677l-26.775-3.245l0.541-8.993l22.719-0.135l1.217-25.153l-22.516,0.474
		l0.54-10.075l-11.223-1.893l-0.406,12.17l-19.067,0.406L326.246,37.641z M344.029,16.004l-0.609,18.188l-7.166,0.068l-0.677-18.188
		L344.029,16.004z M366.206,33.99v0.067l-12.237,0.068l1.014-18.188l11.9-0.135l-0.677,18.256V33.99z"/>
	<path fill="#FFFFFF" d="M239.75,2.938l6.41,2.184l65.141-0.861l0.171,3.045l-62.368,0.806l-3.126,40.802L236.813,67.5l-2.041-0.807
		L239.75,2.938V2.879V2.938z"/>
	<path fill="#FFFFFF" d="M250.512,25.712l-0.062-2.721l11.4-0.371v-4.327l-9.268,0.93l-0.244-2.165l20.98-7.79l4.144,7.419
		l-7.258,0.741l0.062,4.883l8.963-0.309l0.123,2.659l-9.025,0.31l0.061,2.779l8.051,2.969l-2.682,6.924l-5.247-3.463l0.123,7.539
		h-8.782v-8.465l-10.486,6.797l-1.463-1.729l6.587-11.808l5.362,4.574V25.28L250.512,25.712z"/>
	<path fill="#FFFFFF" d="M275.878,25.055l-0.061-2.721l11.401-0.371v-4.328l-9.269,0.927l-0.243-2.162l20.975-7.79l4.149,7.419
		l-7.259,0.741l0.063,4.883l8.963-0.31l0.122,2.657l-9.024,0.309l0.061,2.783l8.05,2.968l-2.681,6.921l-5.247-3.462l0.121,7.542
		h-8.78v-8.469l-10.486,6.8l-1.464-1.732l6.588-11.804l5.362,4.574v-5.812L275.878,25.055z"/>
	<path fill="#FFFFFF" d="M247.885,60.665l-0.165-2.403h10.859l-2.468-9.454l10.097-0.614l1.078,10.014h7.593l-1.571-19.653
		l12.254-0.512l-0.738,12.098l17.423-0.31l0.164,2.261l-17.671,0.306l-0.744,5.755l24.119-0.044l0.078,2.405L247.885,60.665z"/>
</g>
</svg>
