<?xml version="1.0" encoding="utf-8"?>
<!-- Generator: Adobe Illustrator 16.0.0, SVG Export Plug-In . SVG Version: 6.00 Build 0)  -->
<!DOCTYPE svg PUBLIC "-//W3C//DTD SVG 1.1//EN" "http://www.w3.org/Graphics/SVG/1.1/DTD/svg11.dtd">
<svg version="1.1" id="Layer_1" xmlns="http://www.w3.org/2000/svg" xmlns:xlink="http://www.w3.org/1999/xlink" x="0px" y="0px"
	 width="186px" height="44px" viewBox="0 0 186 44" enable-background="new 0 0 186 44" xml:space="preserve">
<g>
	<path fill="#F9D00B" d="M1.041,29.557v0.04l14.135-0.321l-0.04,8.001l-3.855,1.447l0.201,1.568l10.4-0.08l-0.241-11.058
		l14.015-0.321l-0.081-1.77l-13.974,0.322l-0.161-6.754l11.043-0.402l-0.041-1.769L21.4,18.862l-0.161-7.156l8.151-1.689
		l-4.256-5.99L4.213,13.555l0.723,1.567l10.32-2.171l-0.04,6.151L4.293,19.505l0.081,1.77l10.842-0.402l-0.041,6.633L1,27.828
		l0.04,1.769V29.557z"/>
	<path fill="#F9D00B" d="M63.274,15.042l-0.161-1.77l-4.256,0.282l0.843-8.444l-6.265-0.643l0.442,9.368l-4.337,0.281l0.161,1.77
		L63.274,15.042z M62.11,20.028l-0.08-1.769l-10.16,0.442l0.08,1.769L62.11,20.028z M61.789,24.37l-0.08-1.769l-10.16,0.442
		l0.081,1.77L61.789,24.37z M50.866,39.81h11.404l0.482-12.826l-12.208,0.482L50.866,39.81z M57.612,37.88h-2.088l-0.161-8.645
		l2.57-0.161L57.612,37.88z M65.684,39.85l3.172-5.267l0.281-12.746l10.32-0.201l0.08,15.841l-1.927,1.488v1.206l7.147-0.241
		L84.477,5.353l-20.56,0.401l0.442,25.291l-0.563,8.081L65.684,39.85z M70.141,36.15l8.232-0.482l0.201-11.258l-8.473,0.161
		L70.141,36.15z M75.321,26.18l0.161,7.72l-1.727,0.16l-0.121-7.88H75.321z M79.417,13.113l-2.329,0.04l0.08-4.062h-5.702
		l0.161,4.142l-2.289,0.04l0.121-5.629l9.918-0.16L79.417,13.113z M76.968,19.868l0.08-4.865l2.369-0.04l0.041,4.865L76.968,19.868z
		 M69.298,15.083v0.04l2.409-0.04l0.161,4.865l-2.69,0.04l0.121-4.865V15.083z"/>
	<path fill="#F9D00B" d="M115.148,24.049l1.445,0.2l5.541-7.076l6.827-0.321l-1.124,6.031l0.963,0.602l5.863-4.301l-0.723-4.423
		l-10.883,0.482l1.888-9.127l-5.622-1.206L115.148,24.049z M120.449,31.728l-3.053,8.002l1.125,0.764l6.826-6.071l6.987,5.951
		l2.569-5.268l-8.393-3.538l0.121-9.891l-5.783-0.482L120.449,31.728z M98.322,16.972l1.245,0.764l0.522-0.522l0.643,18.334
		l-1.969,0.321l1.285,5.146l10.682-4.945l1.365,4.142l4.177-3.578l-5.983-6.313l-1.124,0.885l0.923,2.814l-4.297,0.724l-0.119-4.865
		l8.834-0.481l0.481-13.188l-4.858,0.402l0.201-5.066l-4.819,0.161l2.249-2.292l6.906,4.624l2.73-4.865l-8.352-1.971l0.521-1.407
		l-5.983-1.527L98.322,16.972z M105.631,28.109l-0.12-3.9l4.177-0.442v4.021L105.631,28.109z M109.688,21.837l-4.217,0.442
		l-0.08-3.297l4.297-0.362V21.837z M104.868,12.268v0.04l0.12,4.745l-2.489,0.2l-1.888-0.603l4.257-4.343V12.268z"/>
	<path fill="#F9D00B" d="M168.347,39.327l14.336-0.121l0.241-15.077l-14.818,0.402L168.347,39.327z M177.623,26.14l-0.08,11.298
		l-3.734,0.04l-0.241-11.258L177.623,26.14z M154.412,20.953l23.451-0.321l0.764-14.837l-24.856,0.885L154.412,20.953z
		 M171.881,18.862l-11.605,0.161l-0.201-10.775l12.047-0.322L171.881,18.862z M150.678,39.488l14.336-0.121l0.241-15.077
		l-14.817,0.401L150.678,39.488z M155.898,26.34v0.041l4.056-0.081l-0.08,11.299l-3.734,0.04l-0.241-11.258V26.34z"/>
</g>
</svg>
