<?xml version="1.0" encoding="utf-8"?>
<!-- Generator: Adobe Illustrator 16.0.0, SVG Export Plug-In . SVG Version: 6.00 Build 0)  -->
<!DOCTYPE svg PUBLIC "-//W3C//DTD SVG 1.1//EN" "http://www.w3.org/Graphics/SVG/1.1/DTD/svg11.dtd">
<svg version="1.1" id="Layer_1" xmlns="http://www.w3.org/2000/svg" xmlns:xlink="http://www.w3.org/1999/xlink" x="0px" y="0px"
	 width="316.348px" height="68px" viewBox="0 -11 316.348 68" enable-background="new 0 -11 316.348 68" xml:space="preserve">
<g>
	<path fill="#FFFFFF" d="M51.372,50.477l22.906-0.193l0.386-24.059l-23.676,0.643L51.372,50.477z M66.194,29.433l-0.129,18.026
		l-5.965,0.065L59.713,29.56L66.194,29.433z M29.111,21.155l37.468-0.513l1.22-23.675L28.083-1.621L29.111,21.155z M57.019,17.819
		l-18.542,0.256L38.155,0.88l19.25-0.512L57.019,17.819z M23.143,50.733l22.905-0.193l0.387-24.06l-23.677,0.642L23.143,50.733z
		 M31.483,29.751v0.066l6.479-0.129l-0.127,18.027l-5.967,0.064l-0.385-17.963V29.751z"/>
	<path fill="#FFFFFF" d="M92.525,38.028l-0.962,13.668l1.795,0.641l6.672-13.024l0.387-12.641l2.952-0.256l-1.027,24.831
		l8.726-0.514l0.513-27.397l-11.1,0.578l0.257-7.893l11.1-0.384l0.256-17.195l-7.699-0.512l-0.77,15.397l-2.822,0.065l0.513-16.746
		L92.333-4.38L92.525,38.028z M131.983,42.07l0.129,10.201l8.982-0.255l0.129-10.073l7.763-0.13l-0.129-2.758l-7.635,0.126
		l0.128-8.659l5.325-0.13l1.348-28.807L131.92,2.165l3.272-6.736l-9.753-1.091l-0.706,8.086l-9.433,0.319l1.348,28.423l15.205-0.386
		l0.13,8.533l-4.556,0.064l1.861-5.967l-7.699-1.926l-2.693,8.021l-4.428,0.064l0.064,2.821L131.983,42.07z M139.169,15.38
		l-3.208,0.129V4.859l3.336-0.129L139.169,15.38z M127.492,5.115l0.129,10.906l-3.207,0.129l-0.258-10.907L127.492,5.115z
		 M124.477,19.103l3.145-0.192l0.129,9.11l-3.016,0.064L124.477,19.103z M138.979,27.764v0.063l-3.018,0.065v-9.497l3.146-0.128
		l-0.128,9.56V27.764z"/>
	<path fill="#FFFFFF" d="M169.735,19.551l0.835,18.094l-6.995,1.41l4.362,9.75l19.507-12.768l-0.257-1.729l-8.213,1.668
		l-0.129-16.81l4.748-0.192v-2.823l-4.813,0.192l-0.064-12.19l7.699-0.063l1.09,26.433l11.485-0.255l0.064,7.57l-9.111,0.128
		l0.13,2.823l8.981-0.129l0.065,7.698l-13.795,0.129l0.064,2.824l36.057-0.383l-0.191-2.826l-13.473,0.13v-7.765l8.916-0.129
		l-0.063-2.823l-8.854,0.13v-7.638l10.778-0.257L220.1-2.585L186.16-2.199l0.128,3.721l-22.456,0.256v2.566l5.197-0.064
		l0.578,12.447l-5.262,0.193v2.822L169.735,19.551z M210.541,12.302l-2.758,0.063V0.496l3.078,0.064L210.541,12.302z M198.8,0.368
		l0.064,12.126l-3.015,0.064l-0.321-12.255L198.8,0.368z M195.977,15.446l2.953-0.066l0.064,11.999l-2.695,0.064L195.977,15.446z
		 M210.154,27.122v0.064l-2.371,0.064V15.252h2.693l-0.322,11.935V27.122z"/>
	<path fill="#FFFFFF" d="M236.744,49.321l1.283,1.284l12.446-12.702l-9.366-5.197L236.744,49.321z M251.5,50.797l32.467-0.257
		l-3.078-9.239l-3.852,6.354l-15.145,0.514l-0.127-16.363l-10.778-1.538L251.5,50.797z M271.52,44.639l7.697-6.159l-11.934-8.661
		l-2.438,1.348L271.52,44.639z M285.762,48.358l7.443-6.03l-12.319-11.1l-1.539,0.834L285.762,48.358z M275.817,9.735l-0.064-1.668
		l14.242,5.903l3.595-10.587l-28.23-4.684l1.026-1.411l-11.805-2.694l-18.222,23.354l1.539,1.604l16.232-11.485l0.064,2.246
		L275.817,9.735z M273.059,17.947l-8.213,8.725l7.508,3.272l15.655-9.558l-7.058-5.711l-35.225,0.772l0.064,2.887L273.059,17.947z
		 M273.316,6.975v0.065l-18.35,0.45l7.762-5.518l10.588,5.069V6.975z"/>
</g>
</svg>
