<?xml version="1.0" encoding="utf-8"?>
<!-- Generator: Adobe Illustrator 16.0.0, SVG Export Plug-In . SVG Version: 6.00 Build 0)  -->
<!DOCTYPE svg PUBLIC "-//W3C//DTD SVG 1.1//EN" "http://www.w3.org/Graphics/SVG/1.1/DTD/svg11.dtd">
<svg version="1.1" id="Layer_1" xmlns="http://www.w3.org/2000/svg" xmlns:xlink="http://www.w3.org/1999/xlink" x="0px" y="0px"
	 width="120px" height="60px" viewBox="0 0 120 60" enable-background="new 0 0 120 60" xml:space="preserve">
<g>
	<path fill="#FFD430" d="M0,33.77L11.19,4.238l8.438,5.918L9.315,24.511l6.445,0.527l0.353,29.707l-7.5,0.938l-1.582-27.95L1.815,35
		L0,33.77z M17.637,18.593l-0.059-2.578l13.711-0.527l-0.293-12.07l9.141,0.352l-0.703,11.426l12.891-0.469l0.117,2.52
		L17.637,18.593z M20.801,38.925l29.355-0.938L49.57,54.745l-28.125,0.176L20.801,38.925z M22.324,33.184l-0.059-2.578l26.25-0.763
		l0.059,2.578L22.324,33.184z M22.559,25.917L22.5,23.339l25.02-0.703l0.117,2.578L22.559,25.917z M29.531,41.034l0.353,11.19
		l11.719-0.059l0.117-11.25L29.531,41.034v-0.06V41.034z"/>
	<path fill="#FFD430" d="M83.168,17.538l-0.06-2.051L68.285,25.975l-1.406-1.465L83.52,3.182l10.781,2.461l-0.938,1.289
		l25.781,4.277l-3.281,9.668l-13.008-5.391l0.06,1.523L83.168,17.538z M71.215,37.986l8.555,4.746L68.402,54.335l-1.172-1.172
		L71.215,37.986z M75.492,24.862l-0.059-2.637l32.168-0.703l6.445,5.215l-14.297,8.73l-6.855-2.988l7.5-7.969L75.492,24.862z
		 M80.238,35.761l9.845,1.406l0.116,14.94l13.828-0.469l3.517-5.801l2.813,8.438L80.709,54.51L80.238,35.761z M100.629,14.55
		l-9.668-4.629l-7.09,5.039L100.629,14.55v-0.059V14.55z M92.895,36.581l2.228-1.229l10.897,7.909l-7.031,5.625L92.895,36.581z
		 M106.137,37.4l1.406-0.762l11.25,10.137l-6.797,5.509L106.137,37.4z"/>
</g>
</svg>
