<?xml version="1.0" encoding="utf-8"?>
<!-- Generator: Adobe Illustrator 16.0.0, SVG Export Plug-In . SVG Version: 6.00 Build 0)  -->
<!DOCTYPE svg PUBLIC "-//W3C//DTD SVG 1.1//EN" "http://www.w3.org/Graphics/SVG/1.1/DTD/svg11.dtd">
<svg version="1.1" id="Layer_1" xmlns="http://www.w3.org/2000/svg" xmlns:xlink="http://www.w3.org/1999/xlink" x="0px" y="0px"
	 width="305px" height="62px" viewBox="0 0 305 62" enable-background="new 0 0 305 62" xml:space="preserve">
<g>
	<g>
		<g>
			<path fill="#523528" d="M173.967,11.034l-0.049-2.195l17.371-0.301L191.041,2l8.383,0.598l-0.498,5.793l18.518-0.349l0.098,2.145
				l-13.775,0.249l6.443,2.798l-7.443,5.889l15.523,3.845l-4.994,8.182l-16.268-7.437l-3.293,2.646l-19.467,4.79l-1.197-1.445
				l16.871-9.183l-10.58-4.842l0.447-2.195l14.574,3.594l6.936-6.591L173.967,11.034z"/>
		</g>
		<g>
			<path fill="#523528" d="M168.495,27.474l4.491,1.509l50.76-0.596l0.119,2.105l-48.814,0.554l-1.549,15.252L167.304,60
				l-1.431-0.556L168.495,27.474v-0.04V27.474z"/>
		</g>
		<g>
			<path fill="#523528" d="M203.662,30.01l-0.057,8.011l15.852-0.295l0.063,2.598l-15.914,0.296v6.661l13.201-0.063l0.121,2.535
				l-13.377,0.057v5.594h19.617l0.125,2.598l-46.732,0.057l-0.061-2.592h17.975l-0.119-5.599l-10.961,0.057l-0.061-2.587
				l11.021-0.057l-0.117-6.484l-10.195,0.175l-8.84,9.838l-2.418-1.174l7.545-18.095l9.016,3.542l-2.945,3.234l7.779-0.114
				l-0.119-8.073"/>
		</g>
	</g>
	<path fill="#523528" d="M35.935,50.581l0.326,6.457l-22.254,0.156l0.067,3.038l53.982-0.385l-0.067-3.039l-22.763,0.156
		l0.182-6.585l12.335-0.332l-0.131-3.04l-12.08,0.332l0.121-5.191l17.994-0.53l-0.068-3.038l-46.287,1.324l0.131,3.039l18.184-0.528
		l0.197,5.127L22.96,47.876l0.067,3.038L35.935,50.581z M19.574,35.343l40.947-0.813l0.924-22.982l-19.074,0.531l3.36-7.665
		L35.618,1.768l-2.53,10.576l-14.56,0.399L19.574,35.343z M51.348,21.882L28.65,22.734l-0.137-7.535l22.889-0.535L51.348,21.882z
		 M28.854,32.228v0.063l-0.136-6.708l22.635-0.852l-0.054,7.279l-22.444,0.28V32.228z"/>
	<path fill="#523528" d="M90.725,45.52l-0.937,13.486l1.781,0.633l6.596-12.861l0.366-12.475l2.924-0.258l-0.986,24.506l8.646-0.518
		l0.474-27.037l-10.999,0.583l0.244-7.785l10.999-0.395l0.233-16.969l-7.631-0.496l-0.743,15.196l-2.798,0.067l0.488-16.526
		L90.481,3.67L90.725,45.52z M129.834,49.459l0.14,10.066l8.901-0.266l0.114-9.939l7.693-0.137l-0.131-2.723l-7.565,0.137
		l0.116-8.547l5.277-0.135l1.299-28.429l-15.958,0.591l3.233-6.652l-9.666-1.064l-0.688,7.979l-9.347,0.329l1.371,28.046l15.069-0.4
		l0.138,8.422l-4.514,0.068l1.836-5.891l-7.632-1.889l-2.661,7.918l-4.387,0.068l0.067,2.787L129.834,49.459z M136.921,23.112
		l-3.178,0.13l-0.014-10.51l3.306-0.131L136.921,23.112z M125.336,12.996l0.141,10.763l-3.179,0.132l-0.268-10.765L125.336,12.996z
		 M122.366,26.803l3.115-0.194l0.138,8.989l-2.988,0.068L122.366,26.803z M136.746,35.33v0.063l-2.988,0.068l-0.012-9.37l3.115-0.13
		l-0.115,9.432V35.33z"/>
	<path fill="#523528" d="M270.387,60.02l24.953-0.241l0.387-26.232l-25.793,0.732L270.387,60.02z M286.504,37.056l-0.115,19.656
		l-6.5,0.077l-0.443-19.585L286.504,37.056z M246.09,28.084l40.82-0.611l1.297-25.812l-43.268,1.594L246.09,28.084z M276.492,24.41
		l-20.201,0.304l-0.373-18.745l20.969-0.587L276.492,24.41z M239.629,60.339l24.955-0.242l0.385-26.231l-25.791,0.732
		L239.629,60.339z M248.688,37.454v0.069l7.059-0.148l-0.113,19.656l-6.502,0.077l-0.443-19.585V37.454z"/>
</g>
</svg>
