<?xml version="1.0" encoding="utf-8"?>
<!-- Generator: Adobe Illustrator 16.0.0, SVG Export Plug-In . SVG Version: 6.00 Build 0)  -->
<!DOCTYPE svg PUBLIC "-//W3C//DTD SVG 1.1//EN" "http://www.w3.org/Graphics/SVG/1.1/DTD/svg11.dtd">
<svg version="1.1" id="Layer_1" xmlns="http://www.w3.org/2000/svg" xmlns:xlink="http://www.w3.org/1999/xlink" x="0px" y="0px"
	 width="174px" height="36px" viewBox="0 0 174 36" enable-background="new 0 0 174 36" xml:space="preserve">
<g>
	<path fill="#523528" d="M1.712,5.767l0.298,20.817L0,26.994l1.34,4.021l6.555-3.054v5.958l4.468-0.299l0.373-28.265l1.825-0.074
		l-0.186-1.601L0.483,4.166l0.038,1.637L1.712,5.767z M15.157,8.522l-1.602-0.521v1.415l3.165,4.693l-0.372,1.004l-2.346,0.224
		l0.447,4.244l6.777-2.866L21.6,19.88l2.83-1.341l-2.532-7.298l-1.192,0.745l0.298,2.644l-2.792,0.298l5.026-9.05l-2.979-1.453
		l-1.863,5.103l-1.787-0.559l2.904-6.704l-3.575-1.117L15.157,8.522z M24.206,8.374L22.79,8.001v1.601l4.282,4.469l-0.296,1.155
		l-2.645,0.261l0.894,4.208l6.07-2.532l0.335,3.016l2.83-1.341l-2.532-7.299l-1.192,0.746l0.298,2.568l-1.973,0.187l5.101-9.013
		l-4.319-1.75L28.265,9.49l-2.272-0.633l3.798-6.702L26.216,1L24.206,8.374z M18.619,28.744h-1.341l0.149-7.299h-3.425l0.298,9.086
		l4.021-0.112l-0.745,3.575l0.894,0.856l4.171-3.947l0.446-10.501h-4.021L18.619,28.744z M24.28,34.516l4.319-0.148l-0.073-3.725
		l4.543-0.111V20.85h-3.427v8.043h-1.154l-0.187-8.49h-3.724L24.28,34.516z M7.969,10.125L5.92,10.198L5.846,5.618l2.123-0.074
		V10.125z M7.931,17.981l-1.898,0.074l-0.074-6.218l2.011-0.075L7.931,17.981z M7.931,25.281v0.036l-1.788,0.372l-0.111-5.995
		l1.898-0.038v5.661V25.281z"/>
	<path fill="#523528" d="M63.188,33.92l14.263-0.299L77.638,20.7l-15.194,0.447L63.188,33.92z M71.902,22.486l0.335,9.496
		l-3.799,0.149l-0.633-9.646H71.902z M60.358,11.055l0.745,0.893l6.89-5.399l3.537-0.149l-2.308,5.064l-3.352-1.229l-0.744,1.118
		l2.792,1.973l-5.326,6.479l0.595,0.931l8.491-4.729l6.704,4.766l2.234-5.213l-6.555-2.346l4.32-7.188l-3.874-1.712l-5.213,0.409
		l1.489-2.309L64.678,1L60.358,11.055z M48.218,10.235l-1.341-0.373l-0.557,1.155l3.686,4.954l-1.08,2.123l-2.347,0.259l1.899,4.543
		l4.319-1.676l-0.483,13.146l5.287-0.149l-0.259-4.99l2.233,2.159l2.011-4.729l-4.468-1.416l-0.187-3.611l-3.425-0.671l3.872-1.489
		l0.484,2.346l3.911-1.898l-4.692-7.187l-0.932,0.931l0.745,3.537l-4.021,0.447l7.969-12.178l-3.761-3.203l-4.729,9.124
		l-1.601-0.447l3.537-6.667l-4.319-3.202L48.218,10.235z M48.181,22.785v0.037l-1.713,10.166l1.116,0.336l4.879-8.38l-4.282-2.122
		V22.785z"/>
	<path fill="#523528" d="M99.154,16.716l0.037,5.474l-6.777,1.229l1.936,5.064l4.879-2.197l0.039,5.438l-2.833,1.042l0.299,1.751
		l8.64-0.596l-0.186-10.129l3.613-1.825l-0.297-1.453l-3.352,0.671l-0.078-4.655l6.406-0.259l0.893,5.735l1.453,3.871l-6.963,5.773
		l0.596,1.415l7.932-3.389L118.184,35l7.301-3.352v-1.416l-3.129,0.223l-1.715-3.871l4.248-3.538l-3.428-5.586l-3.127,3.911
		l-1.045-2.421l-0.371-2.868l8.08-0.296l-0.037-1.639l-8.227,0.298l-1.527-12.215l-5.512-0.633l1.564,13.034l-6.223,0.261
		l-0.111-5.959l-4.393-0.447l7.076-2.16l-2.385-4.766L94.052,9.193l0.596,1.116l4.47-1.377l0.037,6.145l-6.554,0.223l0.074,1.639
		L99.154,16.716z M117.326,3.569v0.037l3.016,7.225l3.467-3.277l-5.291-5.176l-1.191,1.229V3.569z"/>
	<path fill="#523528" d="M138.77,21.258l2.607-3.873l0.818,17.056l4.621-0.633l-0.227-18.881l-3.387-0.298l5.475-8.155l0.52,27.893
		l4.73-0.932l-0.225-16.087l5.736-0.373l-0.15-14.3l-7.447,0.223l-3.24-0.558l0.037,2.644l-4.656-3.277l-6.367,18.769L138.77,21.258
		z M161.264,17.124l5.512-0.26l-0.186,14.188l-2.162,1.602l0.15,1.414l6.629,0.039l-0.076-31.543l-10.129,0.26L161.264,17.124z
		 M153.703,15.672l-0.074-4.17l1.414-0.039l0.039,4.172L153.703,15.672z M155.006,9.714l-1.412,0.074L153.516,4.5l1.455-0.037
		L155.006,9.714z M166.887,9.155l-1.564,0.038l-0.111-4.842l1.748-0.185L166.887,9.155z M165.434,15.338v0.037l-0.074-4.507
		l1.527-0.037l-0.076,4.468l-1.377,0.075V15.338z"/>
</g>
</svg>
