<?xml version="1.0" encoding="utf-8"?>
<!-- Generator: Adobe Illustrator 16.0.0, SVG Export Plug-In . SVG Version: 6.00 Build 0)  -->
<!DOCTYPE svg PUBLIC "-//W3C//DTD SVG 1.1//EN" "http://www.w3.org/Graphics/SVG/1.1/DTD/svg11.dtd">
<svg version="1.1" id="Layer_1" xmlns="http://www.w3.org/2000/svg" xmlns:xlink="http://www.w3.org/1999/xlink" x="0px" y="0px"
	 width="172px" height="44px" viewBox="88 0 172 44" enable-background="new 88 0 172 44" xml:space="preserve">
<path fill="#895770" d="M182.82,5.418l5.117,1.445l-0.117,6.719l1.68-2.109l2.227,4.806l-0.039-1.134L202,14.558l-0.195,7.969
	l-9.922,0.391l-0.156-6.328l-3.983,1.523l-0.117,8.906l4.453,2.344l-0.82,2.305l3.984-0.469l0.116-2.813l1.681,0.352l1.444-2.5
	l-6.641,0.313v-1.759l9.648-0.272l1.797,2.695l-3.633,2.228v1.288l3.984-0.43v1.366l-3.984,1.759v5.586l-5.859,0.469l-0.117-1.327
	l1.328-1.095l0.078-1.642l-3.438,1.484l-0.742-4.336l-0.781,2.148l-2.852-3.125l-6.719,7.148l-0.82-0.742l3.203-8.789l-0.039-7.853
	l-2.931,2.228l-1.055-11.603l1.094-0.977l2.892,6.367L182.82,5.418z M190.945,12.957l-0.039-1.719l4.219-0.234V4.363h5.117
	l-0.195,6.366l3.984-0.233l0.039,1.68L190.945,12.957z M195.555,16.746l0.117,4.414l2.461-0.117l0.117-4.531L195.555,16.746z
	 M205.008,5.379l4.336,2.188l-1.445,8.202l6.642-0.469l0.155,1.875l-7.383,0.508l-3.75,7.774l-1.055-0.195L205.008,5.379z
	 M208.328,17.996l4.805,1.328l-2.383,12.734l3.75,2.384l-1.914,5.194l-3.516-4.142l-4.531,4.023l-0.859-0.781l2.656-6.483
	l-2.539-3.009l0.391-1.366l2.578,1.641L208.328,17.996v-0.039V17.996z"/>
<path fill="#895770" d="M225.609,23.992l14.414-0.391l-0.234,14.648l-13.945,0.117L225.609,23.992z M228.852,6.492l24.181-0.859
	l-0.742,14.414l-22.813,0.313L228.852,6.492z M230.922,25.633l0.234,10.939l3.633-0.039l0.078-10.979L230.922,25.633v-0.039V25.633z
	 M246.703,7.703l-11.719,0.313l0.195,10.47l11.288-0.156L246.703,7.703z M242.797,23.836l14.414-0.391l-0.234,14.648l-13.944,0.117
	L242.797,23.836z M248.109,25.477l0.233,10.939l3.634-0.039l0.078-10.977L248.109,25.477z"/>
<path fill="#895770" d="M92.772,18.464l0.643-1.004l8.196,2.37l-3.214,4.178L92.772,18.464z M100.486,25.294l0.804,1.005
	l-2.732,12.295l-5.625-3.215L100.486,25.294z M94.219,5.606l0.482-0.884l8.518,6.831l-4.661,3.776L94.219,5.606z M105.509,16.696
	l4.781,1.969l-3.174,7.473l1.728,0.644l2.491-6.269l4.5,2.652l-6.268,11.37l2.531-0.281l-0.362-2.41l2.21-0.563l1.487,3.615
	l2.411-0.24l1.205-2.854l-4.902-4.178l0.804-1.607l1.768,0.361l1.848-10.165l4.861,3.174l-4.54,7.433l2.089,0.442l2.853-6.629
	l4.5,2.691l-6.469,10.889l2.411-0.241l-0.361-2.41l2.21-0.563l2.973,7.271l-3.938,1.366l-0.402-2.692L116.156,40l-0.402-1.045
	l-2.772,0.964l-0.442-2.813l-8.839,2.732l-1.728-4.54l3.616-0.361l1.326-3.336l-5.223-5.986l0.201-1.446l2.451,0.925L105.509,16.696
	v-0.04V16.696z M103.058,15.853l-0.081-1.768l5.906-0.081l-3.134-8.719l1.728-0.804l7.071,6.67l-4.701,2.853l6.067-0.08L118.607,4
	l6.79,2.41l-4.861,7.474l7.794-0.08l0.041,1.768L103.058,15.853z"/>
<path fill="#895770" d="M134.913,18.304l0.644-1.005l8.195,2.33l-2.37,4.982L134.913,18.304z M142.627,25.134l0.804,1.004
	l-2.731,12.295l-5.625-3.215L142.627,25.134z M135.154,5.245l1.004-0.924l8.519,6.79l-4.661,3.777L135.154,5.245z M156.168,4.924
	l0.16,11.411l-6.308,0.441l0.441,22.34l-5.103,0.401l-0.321-34.995l3.897,0.763L156.168,4.924z M152.109,6.853l-2.29,0.12
	l0.04,3.416l2.29-0.081L152.109,6.853z M152.23,14.889l-0.041-2.732l-2.29,0.08l0.081,2.732L152.23,14.889z M151.186,34.978
	l-0.04-1.768l3.938-0.041l-0.161-5.625l-3.014,0.041l-0.04-1.769l3.014-0.04l-0.12-3.856L151.708,22l-0.081-1.768l11.813-0.281
	l0.041,1.768l-3.295,0.08l-0.08,3.897l2.813-0.041l0.04,1.769l-2.894,0.04l-0.12,5.705l3.495-0.04l0.081,1.769L151.186,34.978z
	 M158.618,4.643l11.29-0.281l0.241,35.317l-7.151-0.041l-0.161-1.045l2.331-1.768l0.16-21.093h-6.75L158.618,4.643z M165.408,6.089
	l-2.41,0.201l0.04,2.974l2.33-0.041L165.408,6.089z M163.078,14.004l2.25-0.04l0.04-2.933l-2.33,0.04L163.078,14.004v-0.04V14.004z"
	/>
</svg>
