<?xml version="1.0" encoding="utf-8"?>
<!-- Generator: Adobe Illustrator 16.0.0, SVG Export Plug-In . SVG Version: 6.00 Build 0)  -->
<!DOCTYPE svg PUBLIC "-//W3C//DTD SVG 1.1//EN" "http://www.w3.org/Graphics/SVG/1.1/DTD/svg11.dtd">
<svg version="1.1" id="Layer_1" xmlns="http://www.w3.org/2000/svg" xmlns:xlink="http://www.w3.org/1999/xlink" x="0px" y="0px"
	 width="160px" height="36px" viewBox="0 0 160 36" enable-background="new 0 0 160 36" xml:space="preserve">
<g>
	<g>
		<path fill="#523528" d="M32.19,21.355l-2.151,2.596l-0.223-5.709l3.932-0.112l-0.074-1.632L29.78,16.61L29.261,1.63l-4.414,0.223
			l0.668,14.868l-4.006,0.074l3.115-6.007l-4.672-1.557l-1.335,7.638l-5.488,0.149l0.037,1.63l12.424-0.297l0.333,7.676l0.52,2.188
			l-1.818,2.152l0.223-10.644l-10.384,0.372l0.038,10.936l9.642-0.109l-2.595,3.115L22.363,35l4.859-3.264l0.63,2.672l6.231-1.892
			l-0.075-1.52l-2.188-0.112l-0.593-1.854l3.041-2.04L32.19,21.355z M18.469,21.652l2.188-0.075l0.037,2.818l-2.15,0.038
			L18.469,21.652z M18.692,29.328l-0.112-3.263l2.114-0.038l0.038,3.263L18.692,29.328z M15.168,16.944l3.449-1.187l-2.745-6.341
			L14.76,9.788L15.168,16.944z M13.537,7.192l0.074,1.632l11.125-0.112L24.7,7.081l-3.079,0.037l0.259-5.636h-4.672l0.148,5.672
			L13.537,7.192z M30.077,2.928l0.631,8.268l3.634-2.224l-3.004-6.415L30.077,2.928z M14.315,3.892L0.482,4.375l0.037,1.631
			l1.075-0.037l0.409,20.727L0,27.103l1.335,4.004l6.453-3.002l-0.036,6.675l4.301-0.668l0.63-28.551l1.818-0.074L14.315,3.892z
			 M7.825,25.472L5.823,25.88v-6.007l2.04-0.074L7.825,25.472z M7.862,18.13l-2.04,0.075v-6.193L7.9,11.938L7.862,18.13z
			 M7.9,10.306L5.823,10.38v-4.56l2.114-0.075L7.9,10.306z M58.091,26.103l4.895-3.005l-5.785-7.489l-1.039,0.557L58.091,26.103z
			 M73.371,16.61l-5.415-2.521l-4.672,16.908l-8.901,0.072v1.743l20.768-0.148v-1.742l-8.827,0.075L73.371,16.61z M47.746,14.571
			l6.786-8.899L49.19,1.927L42.07,19.243l1.188,1.224l3.338-4.376l0.964,18.243l4.895-0.668l-0.148-18.761L47.746,14.571z
			 M74.298,10.974l-0.111-1.668l-7.788,0.148l0.741-7.453L60.391,1.63l0.704,7.935l-6.787,0.111l0.111,1.668L74.298,10.974z
			 M104.057,1.557h-6.158l0.074,6.081L86.292,7.933l0.594,20.431l11.273-0.26l0.074,6.488l5.379-0.223l0.074-6.378l11.127-0.259
			l0.553-20.504l-11.383,0.259L104.057,1.557z M92.114,9.528l5.859-0.112l0.074,7.787l-5.785,0.11L92.114,9.528z M92.448,26.582
			l-0.146-7.6l5.785-0.11l0.072,7.564L92.448,26.582z M109.434,26.103l-5.713,0.147l0.113-7.49l5.711-0.074L109.434,26.103z
			 M109.656,9.194l-0.111,7.824l-5.711,0.074l0.109-7.787L109.656,9.194z M134.742,9.788l0.369-8.231l-5.637,0.445l0.557,8.083
			l-4.006,0.222l0.148,1.632l12.98-0.779l-0.15-1.631L134.742,9.788z M140.748,18.613v16.238l3.561-0.406l1.855-5.488l6.564-0.112
			l-0.113,3.485l-1.631,1.001l0.297,1.299l6.824,0.187l-0.148-16.724L140.748,18.613z M152.803,27.141l-6.455,0.074l-0.111-2.892
			l6.676-0.224L152.803,27.141z M152.986,22.434l-6.822,0.184l-0.074-2.41l6.971-0.148L152.986,22.434z M151.316,15.053l0.148-3.597
			l5.936-0.222l-0.074-1.631l-5.785,0.222l0.109-2.892l7.307-0.223l-0.037-1.632l-7.193,0.223l0.148-3.819L145.83,1l0.146,4.486
			l-6.602,0.186l0.039,1.63l6.602-0.185l0.074,2.892l-4.969,0.186l0.035,1.632l5.008-0.186l0.072,3.485l-6.305,0.111l0.074,1.632
			l18.768-0.333l-0.039-1.632L151.316,15.053z M137.561,14.125l-9.385,0.408l0.074,1.632l9.385-0.409L137.561,14.125z
			 M127.248,33.999h10.535l0.445-11.828l-11.275,0.446L127.248,33.999z M133.777,24.1l-0.297,8.121h-1.93l-0.148-7.972L133.777,24.1
			z M127.955,20.171l9.381-0.41l-0.074-1.631l-9.383,0.409L127.955,20.171z"/>
	</g>
</g>
</svg>
